<svg width="33" height="26" viewBox="0 0 33 26" fill="none" xmlns="http://www.w3.org/2000/svg">
<path fill-rule="evenodd" clip-rule="evenodd" d="M0.932674 13.9765C0.67391 13.7174 0.528564 13.3662 0.528564 13C0.528564 12.6338 0.67391 12.2826 0.932674 12.0235L11.987 0.969194C12.1135 0.833434 12.2661 0.724546 12.4356 0.649023C12.6051 0.5735 12.788 0.532892 12.9736 0.529618C13.1591 0.526345 13.3434 0.560473 13.5154 0.62997C13.6875 0.699466 13.8438 0.802908 13.975 0.93412C14.1062 1.06533 14.2097 1.22163 14.2792 1.39369C14.3487 1.56574 14.3828 1.75004 14.3795 1.93557C14.3762 2.1211 14.3356 2.30408 14.2601 2.47358C14.1846 2.64308 14.0757 2.79563 13.9399 2.92213L5.24386 11.6182L31.3874 11.6182C31.7538 11.6182 32.1053 11.7638 32.3644 12.0229C32.6236 12.2821 32.7691 12.6335 32.7691 13C32.7691 13.3665 32.6236 13.7179 32.3644 13.9771C32.1053 14.2362 31.7538 14.3818 31.3874 14.3818L5.24386 14.3818L13.9399 23.0779C14.0757 23.2044 14.1846 23.3569 14.2601 23.5264C14.3356 23.6959 14.3762 23.8789 14.3795 24.0644C14.3828 24.2499 14.3487 24.4342 14.2792 24.6063C14.2097 24.7784 14.1062 24.9347 13.975 25.0659C13.8438 25.1971 13.6875 25.3005 13.5154 25.37C13.3434 25.4395 13.1591 25.4736 12.9736 25.4704C12.788 25.4671 12.6051 25.4265 12.4356 25.351C12.2661 25.2754 12.1135 25.1665 11.987 25.0308L0.932674 13.9765Z" fill="cyan"/>
</svg>
