<svg width="295" height="289" viewBox="0 0 295 289" fill="none" xmlns="http://www.w3.org/2000/svg">
<g filter="url(#filter0_d_108_12566)">
<g filter="url(#filter1_d_108_12566)">
<path d="M40.3478 270.207C39.5052 252.697 53.1447 236.398 70.6547 233.633C73.2352 233.238 75.8946 233.001 78.5013 233.001C110.072 232.948 141.669 232.922 173.24 233.001C205.311 233.054 231.879 203.168 227.877 171.36C227.455 167.964 226.929 164.567 226.428 161.17C226.639 160.907 226.876 160.617 227.087 160.354C231.932 162.987 237.013 165.225 241.542 168.306C251.39 174.994 258.473 183.999 262.107 195.453C262.686 197.296 262.739 199.666 262.159 201.509C249.916 239.873 223.585 262.097 184.115 268.943C178.848 269.864 173.451 270.154 168.105 270.154C126.74 270.259 85.3737 270.207 44.0078 270.207C42.8756 270.207 41.717 270.207 40.3478 270.207Z" fill="#70593F"/>
<path d="M15.5688 149.137C20.7297 151.27 25.285 153.402 29.9982 155.035C38.8454 158.063 48.0349 159.09 57.356 159.09C95.3778 159.09 133.373 159.09 171.395 159.09C181.375 159.09 188.853 165.33 190.511 174.915C192.355 185.473 184.034 196.164 173.265 196.216C145.775 196.401 118.259 197.138 90.8226 196.006C59.2255 194.689 34.9221 179.417 17.7017 152.902C16.9907 151.796 16.4114 150.611 15.5688 149.137Z" fill="#70593F"/>
<path d="M253.548 131.548C248.124 129.389 243.148 127.177 238.013 125.439C229.561 122.569 220.766 121.7 211.867 121.7C173.739 121.7 135.612 121.7 97.4852 121.7C83.2401 121.7 74.1296 107.403 80.3964 94.8692C83.6877 88.3128 89.2172 84.5738 96.5636 84.5475C123.316 84.4158 150.094 83.8365 176.82 84.7054C209.102 85.7587 233.906 100.952 251.547 127.941C252.232 128.994 252.758 130.126 253.548 131.574V131.548Z" fill="#70593F"/>
<path d="M226.691 9.89941C227.955 25.5926 215.684 41.7862 199.57 45.7621C196.147 46.6047 192.513 47.0523 188.959 47.0523C157.993 47.1576 127.028 47.7369 96.0894 46.9206C64.5713 46.1044 35.9759 76.6746 40.4522 108.956C40.8998 112.274 41.3738 115.565 41.9004 119.252C35.8443 117.566 30.7097 114.828 25.9965 111.352C16.333 104.217 9.19739 95.2115 5.85336 83.4943C5.51106 82.2831 5.48473 80.7822 5.85336 79.571C17.0703 40.4169 49.3257 13.849 89.7436 10.426C93.6143 10.1101 97.5112 9.92573 101.408 9.92573C141.958 9.8994 182.481 9.92573 223.031 9.92573C224.268 9.92573 225.506 9.92573 226.691 9.92573V9.89941Z" fill="#70593F"/>
<path d="M38.7609 260.308C37.9183 242.798 51.5578 226.499 69.0678 223.734C71.6482 223.339 74.3077 223.102 76.9144 223.102C108.485 223.049 140.082 223.023 171.653 223.102C203.724 223.155 230.292 193.269 226.29 161.461C225.868 158.065 225.342 154.668 224.841 151.271C225.052 151.008 225.289 150.718 225.5 150.455C230.345 153.088 235.426 155.326 239.955 158.407C249.803 165.095 256.886 174.1 260.52 185.554C261.099 187.397 261.152 189.767 260.572 191.61C248.329 229.974 221.998 252.198 182.528 259.044C177.262 259.965 171.864 260.255 166.518 260.255C125.153 260.36 83.7868 260.308 42.4209 260.308C41.2887 260.308 40.1301 260.308 38.7609 260.308Z" fill="#D9A76E"/>
<path d="M225.104 0C226.368 15.6932 214.098 31.8867 197.983 35.8627C194.56 36.7053 190.927 37.1529 187.372 37.1529C156.407 37.2582 125.442 37.8375 94.5027 37.0212C62.9846 36.205 34.3893 66.7752 38.8655 99.0569C39.3131 102.375 39.7871 105.666 40.3137 109.352C34.2576 107.667 29.1231 104.929 24.4098 101.453C14.7464 94.3173 7.61072 85.3121 4.26669 73.5949C3.92439 72.3836 3.89806 70.8828 4.26669 69.6716C15.4837 30.5175 47.739 3.94963 88.157 0.52661C92.0276 0.210639 95.9246 0.0263164 99.8216 0.0263164C140.371 -1.44634e-05 180.894 0.0263164 221.444 0.0263164C222.682 0.0263164 223.919 0.0263164 225.104 0.0263164V0Z" fill="#D9A76E"/>
<path d="M13.9819 139.238C19.1428 141.371 23.698 143.503 28.4113 145.136C37.2585 148.164 46.448 149.191 55.7691 149.191C93.7909 149.191 131.786 149.191 169.808 149.191C179.788 149.191 187.266 155.431 188.925 165.016C190.768 175.574 182.447 186.265 171.678 186.317C144.188 186.502 116.673 187.239 89.2357 186.107C57.6386 184.79 33.3352 169.518 16.1148 143.003C15.4038 141.897 14.8245 140.712 13.9819 139.238Z" fill="#D9A76E"/>
<path d="M251.962 121.649C246.538 119.49 241.562 117.278 236.427 115.54C227.975 112.67 219.18 111.801 210.281 111.801C172.154 111.801 134.026 111.801 95.8992 111.801C81.6542 111.801 72.5437 97.5033 78.8104 84.9698C82.1018 78.4134 87.6313 74.6744 94.9776 74.648C121.73 74.5164 148.508 73.9371 175.234 74.806C207.516 75.8593 232.32 91.0522 249.961 118.041C250.646 119.095 251.173 120.227 251.962 121.675V121.649Z" fill="#D9A76E"/>
</g>
</g>
<defs>
<filter id="filter0_d_108_12566" x="4" y="0" width="290.268" height="288.92" filterUnits="userSpaceOnUse" color-interpolation-filters="sRGB">
<feFlood flood-opacity="0" result="BackgroundImageFix"/>
<feColorMatrix in="SourceAlpha" type="matrix" values="0 0 0 0 0 0 0 0 0 0 0 0 0 0 0 0 0 0 127 0" result="hardAlpha"/>
<feOffset dx="24" dy="11"/>
<feGaussianBlur stdDeviation="3.85"/>
<feComposite in2="hardAlpha" operator="out"/>
<feColorMatrix type="matrix" values="0 0 0 0 0.0431373 0 0 0 0 0.0431373 0 0 0 0 0.0431373 0 0 0 0.28 0"/>
<feBlend mode="normal" in2="BackgroundImageFix" result="effect1_dropShadow_108_12566"/>
<feBlend mode="normal" in="SourceGraphic" in2="effect1_dropShadow_108_12566" result="shape"/>
</filter>
<filter id="filter1_d_108_12566" x="0" y="0" width="266.568" height="278.22" filterUnits="userSpaceOnUse" color-interpolation-filters="sRGB">
<feFlood flood-opacity="0" result="BackgroundImageFix"/>
<feColorMatrix in="SourceAlpha" type="matrix" values="0 0 0 0 0 0 0 0 0 0 0 0 0 0 0 0 0 0 127 0" result="hardAlpha"/>
<feOffset dy="4"/>
<feGaussianBlur stdDeviation="2"/>
<feComposite in2="hardAlpha" operator="out"/>
<feColorMatrix type="matrix" values="0 0 0 0 0 0 0 0 0 0 0 0 0 0 0 0 0 0 0.25 0"/>
<feBlend mode="normal" in2="BackgroundImageFix" result="effect1_dropShadow_108_12566"/>
<feBlend mode="normal" in="SourceGraphic" in2="effect1_dropShadow_108_12566" result="shape"/>
</filter>
</defs>
</svg>
