<svg width="211" height="221" viewBox="0 0 211 221" fill="none" xmlns="http://www.w3.org/2000/svg">
<path d="M29.6663 220.49C28.9788 206.202 40.1087 192.902 54.397 190.646C56.5026 190.324 58.6727 190.13 60.7999 190.13C86.5619 190.087 112.345 190.066 138.107 190.13C164.278 190.173 185.957 165.786 182.691 139.831C182.347 137.059 181.918 134.288 181.509 131.516C181.681 131.301 181.875 131.065 182.047 130.85C186 132.998 190.147 134.825 193.843 137.339C201.878 142.796 207.658 150.144 210.623 159.491C211.096 160.995 211.139 162.929 210.666 164.433C200.675 195.738 179.189 213.873 146.981 219.459C142.684 220.211 138.279 220.447 133.917 220.447C100.163 220.533 66.4078 220.49 32.6529 220.49C31.729 220.49 30.7836 220.49 29.6663 220.49Z" fill="#02B3BE" fill-opacity="0.34"/>
<path d="M9.44522 121.697C13.6565 123.437 17.3736 125.178 21.2197 126.51C28.439 128.981 35.9377 129.819 43.5439 129.819C74.57 129.819 105.575 129.819 136.601 129.819C144.744 129.819 150.846 134.911 152.2 142.732C153.704 151.348 146.914 160.071 138.126 160.114C115.695 160.265 93.2415 160.866 70.8529 159.942C45.0694 158.868 25.2376 146.406 11.1856 124.769C10.6055 123.867 10.1328 122.9 9.44522 121.697Z" fill="#02B3BE" fill-opacity="0.34"/>
<path d="M203.638 107.344C199.211 105.582 195.151 103.778 190.961 102.36C184.064 100.018 176.887 99.3085 169.625 99.3085C138.513 99.3085 107.401 99.3085 76.2888 99.3085C64.6647 99.3085 57.2305 87.6415 62.3442 77.414C65.03 72.064 69.5421 69.0129 75.5367 68.9914C97.3667 68.884 119.218 68.4113 141.027 69.1203C167.369 69.9798 187.609 82.3773 202.005 104.401C202.563 105.26 202.993 106.184 203.638 107.366V107.344Z" fill="#02B3BE" fill-opacity="0.34"/>
<path d="M181.722 8.07794C182.754 20.8837 172.741 34.0978 159.592 37.3422C156.798 38.0297 153.833 38.395 150.933 38.395C125.665 38.4809 100.397 38.9536 75.1507 38.2875C49.4317 37.6215 26.0977 62.567 29.7503 88.9091C30.1156 91.6164 30.5023 94.3021 30.9321 97.3102C25.9902 95.9351 21.8004 93.7005 17.9544 90.8643C10.0689 85.0416 4.24618 77.6933 1.51743 68.1319C1.23811 67.1435 1.21662 65.9189 1.51743 64.9305C10.6706 32.9805 36.9912 11.3009 69.9725 8.50766C73.131 8.24983 76.311 8.09942 79.4909 8.09942C112.58 8.07793 145.647 8.09942 178.736 8.09942C179.746 8.09942 180.755 8.09942 181.722 8.09942V8.07794Z" fill="#02B3BE" fill-opacity="0.34"/>
<g style="mix-blend-mode:plus-lighter">
<path d="M28.3653 212.412C27.6777 198.124 38.8076 184.824 53.0959 182.568C55.2016 182.246 57.3717 182.052 59.4988 182.052C85.2608 182.009 111.044 181.988 136.806 182.052C162.976 182.095 184.656 157.709 181.39 131.753C181.046 128.981 180.617 126.21 180.208 123.438C180.38 123.223 180.574 122.987 180.746 122.772C184.699 124.921 188.846 126.747 192.542 129.261C200.577 134.718 206.357 142.067 209.322 151.413C209.795 152.917 209.838 154.851 209.365 156.355C199.374 187.66 177.888 205.795 145.68 211.381C141.383 212.133 136.978 212.369 132.616 212.369C98.8616 212.455 65.1067 212.412 31.3519 212.412C30.4279 212.412 29.4826 212.412 28.3653 212.412Z" fill="url(#paint0_linear_10_13)"/>
<path d="M180.423 0C181.454 12.8058 171.441 26.0198 158.292 29.2642C155.499 29.9518 152.533 30.317 149.633 30.317C124.365 30.403 99.0972 30.8757 73.8509 30.2096C48.1319 29.5435 24.7979 54.4891 28.4505 80.8312C28.8158 83.5384 29.2025 86.2242 29.6323 89.2323C24.6904 87.8571 20.5006 85.6226 16.6546 82.7864C8.76913 76.9636 2.94637 69.6153 0.217623 60.054C-0.0616983 59.0656 -0.0831846 57.8409 0.217623 56.8525C9.37075 24.9025 35.6914 3.22293 68.6727 0.429718C71.8312 0.171883 75.0111 0.0214744 78.1911 0.0214744C111.28 -1.18023e-05 144.347 0.0214744 177.436 0.0214744C178.446 0.0214744 179.456 0.0214744 180.423 0.0214744V0Z" fill="url(#paint1_linear_10_13)"/>
<path d="M8.14835 113.62C12.3596 115.36 16.0768 117.101 19.9228 118.433C27.1422 120.904 34.6409 121.742 42.247 121.742C73.2731 121.742 104.278 121.742 135.304 121.742C143.447 121.742 149.549 126.834 150.903 134.655C152.407 143.271 145.617 151.994 136.829 152.037C114.398 152.188 91.9446 152.789 69.556 151.865C43.7725 150.791 23.9407 138.329 9.88874 116.692C9.30861 115.79 8.83591 114.823 8.14835 113.62Z" fill="url(#paint2_linear_10_13)"/>
<path d="M202.34 99.266C197.914 97.5041 193.853 95.6993 189.663 94.2812C182.766 91.9392 175.589 91.2302 168.327 91.2302C137.215 91.2302 106.103 91.2302 74.991 91.2302C63.367 91.2302 55.9327 79.5632 61.0464 69.3357C63.7322 63.9856 68.2443 60.9346 74.239 60.9131C96.069 60.8057 117.92 60.333 139.729 61.042C166.071 61.9015 186.311 74.299 200.707 96.3224C201.266 97.1819 201.695 98.1058 202.34 99.2875V99.266Z" fill="url(#paint3_linear_10_13)"/>
</g>
<defs>
<linearGradient id="paint0_linear_10_13" x1="119.017" y1="122.772" x2="119.017" y2="212.423" gradientUnits="userSpaceOnUse">
<stop stop-color="#1885B3"/>
<stop offset="1" stop-color="#0A7F99"/>
</linearGradient>
<linearGradient id="paint1_linear_10_13" x1="90.2478" y1="0" x2="90.2478" y2="89.2323" gradientUnits="userSpaceOnUse">
<stop stop-color="#1885B3"/>
<stop offset="1" stop-color="#0A7F99"/>
</linearGradient>
<linearGradient id="paint2_linear_10_13" x1="79.6303" y1="113.62" x2="79.6303" y2="152.369" gradientUnits="userSpaceOnUse">
<stop stop-color="#1885B3"/>
<stop offset="1" stop-color="#0A7F99"/>
</linearGradient>
<linearGradient id="paint3_linear_10_13" x1="130.872" y1="60.6592" x2="130.872" y2="99.2875" gradientUnits="userSpaceOnUse">
<stop stop-color="#1885B3"/>
<stop offset="1" stop-color="#0A7F99"/>
</linearGradient>
</defs>
</svg>
