<svg width="77" height="79" viewBox="0 0 77 79" fill="none" xmlns="http://www.w3.org/2000/svg">
<g filter="url(#filter0_d_247_41)">
<path d="M12.2614 75.9963C12.0235 71.0716 15.8743 66.4875 20.8178 65.7099C21.5463 65.5988 22.2971 65.5322 23.0331 65.5322C31.9463 65.5173 40.8669 65.5099 49.78 65.5322C58.8345 65.547 66.3352 57.1416 65.2053 48.1955C65.0863 47.2402 64.9377 46.2849 64.7964 45.3295C64.8559 45.2555 64.9228 45.174 64.9823 45.1C66.3501 45.8405 67.7848 46.47 69.0634 47.3365C71.8437 49.2175 73.8434 51.7502 74.8693 54.9717C75.0328 55.4901 75.0477 56.1566 74.8841 56.675C71.4274 67.465 63.9935 73.7154 52.8502 75.6408C51.3634 75.9 49.8395 75.9815 48.3304 75.9815C36.6519 76.0111 24.9733 75.9963 13.2947 75.9963C12.9751 75.9963 12.648 75.9963 12.2614 75.9963Z" fill="#4E4747" fill-opacity="0.81"/>
<path d="M5.26562 41.9452C6.72266 42.545 8.00872 43.1449 9.33937 43.6041C11.8371 44.4557 14.4316 44.7445 17.0631 44.7445C27.7976 44.7445 38.5246 44.7445 49.2591 44.7445C52.0765 44.7445 54.1878 46.4997 54.6561 49.1953C55.1765 52.165 52.8274 55.1717 49.7869 55.1865C42.026 55.2383 34.2576 55.4457 26.5116 55.1272C17.5909 54.757 10.7295 50.4617 5.86777 43.0042C5.66706 42.6932 5.50351 42.3599 5.26562 41.9452Z" fill="#4E4747" fill-opacity="0.81"/>
<path d="M72.4531 36.9982C70.9217 36.391 69.5167 35.7689 68.0671 35.2801C65.6809 34.4729 63.1979 34.2285 60.6853 34.2285C49.9211 34.2285 39.1569 34.2285 28.3927 34.2285C24.371 34.2285 21.7989 30.2073 23.5681 26.6822C24.4974 24.8382 26.0585 23.7866 28.1325 23.7792C35.6853 23.7421 43.2455 23.5792 50.7909 23.8236C59.9048 24.1198 66.9074 28.3929 71.8881 35.9836C72.0814 36.2799 72.2301 36.5983 72.4531 37.0056V36.9982Z" fill="#4E4747" fill-opacity="0.81"/>
<path d="M64.8712 2.78418C65.228 7.19794 61.7638 11.7524 57.2143 12.8707C56.2479 13.1076 55.222 13.2335 54.2185 13.2335C45.4763 13.2632 36.7341 13.4261 27.9993 13.1965C19.101 12.9669 11.0279 21.5649 12.2916 30.6442C12.418 31.5773 12.5518 32.503 12.7005 33.5398C10.9907 33.0658 9.54108 32.2957 8.21042 31.3181C5.4822 29.3112 3.46763 26.7785 2.52354 23.4829C2.4269 23.1423 2.41946 22.7202 2.52354 22.3795C5.69035 11.3673 14.7968 3.89502 26.2078 2.93229C27.3005 2.84342 28.4007 2.79158 29.5009 2.79158C40.9491 2.78418 52.3898 2.79158 63.8379 2.79158C64.1873 2.79158 64.5366 2.79158 64.8712 2.79158V2.78418Z" fill="#4E4747" fill-opacity="0.81"/>
<path d="M11.8132 73.2121C11.5753 68.2874 15.426 63.7033 20.3696 62.9257C21.0981 62.8146 21.8489 62.748 22.5848 62.748C31.498 62.7332 40.4186 62.7258 49.3318 62.748C58.3862 62.7628 65.887 54.3574 64.757 45.4114C64.6381 44.456 64.4894 43.5007 64.3482 42.5454C64.4076 42.4713 64.4745 42.3899 64.534 42.3158C65.9018 43.0564 67.3366 43.6858 68.6152 44.5523C71.3954 46.4333 73.3951 48.9661 74.421 52.1875C74.5846 52.7059 74.5994 53.3724 74.4359 53.8908C70.9791 64.6808 63.5453 70.9312 52.402 72.8567C50.9152 73.1159 49.3913 73.1973 47.8822 73.1973C36.2036 73.227 24.5251 73.2121 12.8465 73.2121C12.5268 73.2121 12.1997 73.2121 11.8132 73.2121Z" fill="white"/>
<path d="M64.4229 0C64.7798 4.41376 61.3156 8.96823 56.7661 10.0865C55.7997 10.3235 54.7738 10.4494 53.7702 10.4494C45.028 10.479 36.2858 10.6419 27.5511 10.4123C18.6528 10.1827 10.5796 18.7807 11.8434 27.86C11.9697 28.7931 12.1035 29.7188 12.2522 30.7556C10.5424 30.2817 9.09284 29.5115 7.76218 28.5339C5.03396 26.527 3.01939 23.9943 2.07529 20.6988C1.97865 20.3581 1.97122 19.936 2.07529 19.5953C5.24211 8.58314 14.3486 1.11084 25.7595 0.148111C26.8523 0.0592429 27.9525 0.00740157 29.0527 0.00740157C40.5008 -4.06788e-06 51.9415 0.00740157 63.3896 0.00740157C63.739 0.00740157 64.0884 0.00740157 64.4229 0.00740157V0Z" fill="white"/>
<path d="M4.81836 39.161C6.27539 39.7609 7.56145 40.3607 8.89211 40.8199C11.3899 41.6715 13.9843 41.9603 16.6159 41.9603C27.3503 41.9603 38.0774 41.9603 48.8118 41.9603C51.6293 41.9603 53.7405 43.7155 54.2088 46.4111C54.7292 49.3808 52.3801 52.3875 49.3396 52.4023C41.5787 52.4541 33.8104 52.6615 26.0643 52.3431C17.1437 51.9728 10.2822 47.6775 5.4205 40.22C5.21979 39.909 5.05624 39.5757 4.81836 39.161Z" fill="white"/>
<path d="M72.0058 34.214C70.4744 33.6068 69.0694 32.9847 67.6198 32.4959C65.2336 31.6887 62.7507 31.4443 60.238 31.4443C49.4738 31.4443 38.7096 31.4443 27.9454 31.4443C23.9237 31.4443 21.3516 27.4231 23.1209 23.898C24.0501 22.054 25.6112 21.0024 27.6852 20.995C35.238 20.9579 42.7982 20.795 50.3436 21.0394C59.4575 21.3356 66.4602 25.6087 71.4408 33.1995C71.6341 33.4957 71.7828 33.8141 72.0058 34.2215V34.214Z" fill="white"/>
</g>
<defs>
<filter id="filter0_d_247_41" x="0.880531" y="0" width="75.2389" height="78.2389" filterUnits="userSpaceOnUse" color-interpolation-filters="sRGB">
<feFlood flood-opacity="0" result="BackgroundImageFix"/>
<feColorMatrix in="SourceAlpha" type="matrix" values="0 0 0 0 0 0 0 0 0 0 0 0 0 0 0 0 0 0 127 0" result="hardAlpha"/>
<feOffset dy="1.11947"/>
<feGaussianBlur stdDeviation="0.559735"/>
<feComposite in2="hardAlpha" operator="out"/>
<feColorMatrix type="matrix" values="0 0 0 0 0 0 0 0 0 0 0 0 0 0 0 0 0 0 0.25 0"/>
<feBlend mode="normal" in2="BackgroundImageFix" result="effect1_dropShadow_247_41"/>
<feBlend mode="normal" in="SourceGraphic" in2="effect1_dropShadow_247_41" result="shape"/>
</filter>
</defs>
</svg>
