<svg width="496" height="166" viewBox="0 0 496 166" fill="none" xmlns="http://www.w3.org/2000/svg">
<g clip-path="url(#clip0_459_2)">
<path d="M53.6 0.5H86.5C87.6 0.5 88.4 1.4 88.4 2.5C88.4 2.9 88.3 3.20001 88 3.60001L46.1 59.3C45.5 60.2 44.2 60.3 43.4 59.7C43.3 59.7 43.3 59.6 43.2 59.5C38.4 54.8 25 39.6 33.3 25.2C33.4 25.1 33.4 25 33.5 24.9L52 1.2C52.4 0.699997 53 0.5 53.6 0.5Z" fill="#E54D67"/>
<path d="M24.7 36.9999C24.7 36.5999 24.3 36.4999 24.1 36.7999L0.8 67.4999C-0.1 68.6999 -0.1 70.2999 0.8 71.3999L48.4 133.3L51.8 137.6C52.7 138.7 54 139.3 55.3 139.3H86.7C88.5 139.3 90 137.8 89.9 136C89.9 135.3 89.7 134.6 89.2 134L30.4 58.7999C29.8 57.6999 24.5 52.1999 24.7 36.9999Z" fill="#15415B"/>
<path d="M471.6 101.9C471.6 102.3 472 102.4 472.3 102.1L495.2 71.1C496.1 69.9 496 68.3 495.1 67.2L446.6 6L443.1 1.7C442.2 0.599997 440.9 0 439.5 0L408.1 0.399994C406.3 0.399994 404.9 1.9 404.9 3.7C404.9 4.4 405.2 5.10001 405.6 5.60001L465.5 80C466.3 81.3 471.6 86.7 471.6 101.9Z" fill="#15415B"/>
<path d="M442.5 139.6H409.6C408.5 139.6 407.7 138.7 407.7 137.6C407.7 137.2 407.8 136.9 408.1 136.5L450 80.7999C450.6 79.8999 451.9 79.7999 452.7 80.3999C452.8 80.3999 452.8 80.4999 452.9 80.5999C457.7 85.2999 471.1 100.5 462.8 114.9C462.8 115 462.7 115.1 462.6 115.2L444.1 138.9C443.7 139.3 443.1 139.6 442.5 139.6Z" fill="#E54D67"/>
<path d="M333.2 36.8999H411.5C417.9 36.8999 423 42.0999 423 48.3999V103.9C423 110.3 417.8 115.4 411.5 115.4H333.2C326.8 115.4 321.7 110.2 321.7 103.9V48.3999C321.7 41.9999 326.9 36.8999 333.2 36.8999Z" fill="#E54D67"/>
<path d="M68.2 44.2001C68.1 40.6001 69.3 37.1 71.6 34.3C73.5 31.8 76.5 30.3 79.7 30.3H89.4C94.4 30.3 99.1 32.7001 102.1 36.7001C105.6 41.0001 107.5 46.4001 107.4 52.0001C107.4 58.8001 105.6 64.0001 102.1 67.5001C106.2 71.3001 108.2 77.0001 108.2 84.5001C108.3 90.4001 106.4 96.1001 102.7 100.6C99.5 104.8 94.6 107.3 89.3 107.3H79.7C76.5 107.3 73.5 105.8 71.6 103.2C69.3 100.4 68.1 97.0001 68.2 93.4001V44.2001ZM78.2 61.7001H89.4C91.6 61.7001 93.7 60.7001 95.1 58.9001C96.7 57.0001 97.5 54.5001 97.4 52.0001C97.5 49.5001 96.6 47.1001 95.1 45.2001C93.8 43.4001 91.7 42.3 89.4 42.3H79.7C79.3 42.3 78.9 42.5 78.6 42.8C78.3 43.2 78.2 43.7001 78.2 44.1001V61.7001ZM89.4 95.2001C91.9 95.2001 94.2 94.1001 95.7 92.1001C99.1 87.6001 99.1 81.3 95.7 76.8C94.2 74.8 91.9 73.7001 89.4 73.6001H78.2V93.3C78.2 93.8 78.3 94.2001 78.6 94.6001C78.9 94.9001 79.3 95.1001 79.7 95.1001L89.4 95.2001Z" fill="#15415B"/>
<path d="M135.6 50.5C137 50.5 138.3 51.2 139.1 52.3C140.1 53.5 140.6 55 140.5 56.5V56.6C140.5 58.1 140 59.6 139.1 60.8C138.3 61.9 137 62.6 135.6 62.6H133.3C131.1 62.6 129 63.6 127.6 65.4C126.1 67.3 125.2 69.8 125.3 72.2V101.3C125.3 102.8 124.8 104.3 123.8 105.5C123 106.6 121.7 107.3 120.3 107.3H120.2C118.8 107.3 117.6 106.6 116.7 105.5C115.7 104.3 115.1 102.8 115.2 101.3V72.2C115.1 66.6 117 61.2 120.5 56.9C123.5 52.9 128.2 50.6 133.2 50.5H135.6Z" fill="#15415B"/>
<path d="M151.6 44.1C150 44.1 148.5 43.3 147.6 42.1C146.5 40.7 145.9 39 145.9 37.2C145.9 35.4 146.4 33.6999 147.6 32.3999C149.2 30.1999 152.4 29.6999 154.6 31.3999C155 31.6999 155.3 31.9999 155.6 32.3999C157.9 35.1999 157.9 39.3 155.6 42.1C154.6 43.3 153.2 44.1 151.6 44.1ZM151.6 50.4999C153 50.4999 154.3 51.1999 155.1 52.2999C156.1 53.4999 156.7 54.9999 156.6 56.4999V101.3C156.6 102.8 156.1 104.3 155.1 105.5C154.3 106.6 153 107.3 151.6 107.3C150.2 107.3 148.9 106.6 148.1 105.5C147.1 104.3 146.5 102.8 146.6 101.3V56.4999C146.6 54.8999 147.1 53.3999 148.1 52.2999C148.9 51.1999 150.2 50.4999 151.6 50.4999Z" fill="#15415B"/>
<path d="M207.1 30.3C208.5 30.3 209.7 30.9001 210.6 32.0001C211.6 33.2001 212.2 34.7001 212.1 36.2001V79.1001C212.3 86.4001 209.8 93.5001 205.2 99.1001C200.6 104.6 195.1 107.4 188.6 107.4C182.2 107.4 176.6 104.6 172 99.1001C162.8 87.3001 162.8 70.7001 172 58.9001C176.6 53.3001 182.1 50.6001 188.6 50.6001C194.5 50.6001 199 52.2001 202.1 55.5001V36.2001C202.1 34.6001 202.6 33.1001 203.6 32.0001C204.5 30.9001 205.8 30.3 207.1 30.3ZM179 67.5001C173.8 74.3001 173.8 83.8001 179 90.6001C183 95.9001 190.5 97.0001 195.8 93.0001C196.7 92.3001 197.5 91.5001 198.2 90.6001C203.5 83.8001 203.5 74.3001 198.2 67.5001C194.2 62.2001 186.8 61.1001 181.5 65.1001C180.5 65.8001 179.7 66.6001 179 67.5001Z" fill="#15415B"/>
<path d="M242.5 115.6C246.1 115.5 249.5 113.7 251.7 110.8C254.5 107.6 256 103.5 256 99.2999C253.5 104.4 248.2 107.6 242.5 107.5C236 107.5 230.5 104.7 225.9 99.2C216.7 87.4 216.7 70.7999 225.9 58.9999C230.5 53.3999 236 50.7 242.5 50.7C249 50.7 254.5 53.4999 259.1 58.9999C263.7 64.5999 266.2 71.6999 266 78.9999V99.3999C266.1 106.8 263.5 114 258.6 119.5C253.8 125 248.5 127.8 242.5 127.8C233.3 127.8 226.4 123.5 221.9 114.9C221.4 113.9 221.1 112.8 221.1 111.7C221.1 111 221.2 110.4 221.4 109.7C221.8 108 222.9 106.6 224.5 105.9H224.6C225.2 105.6 225.9 105.5 226.6 105.5C228.3 105.6 229.8 106.7 230.4 108.3C232.6 112.8 237.4 115.7 242.5 115.6ZM256 78.5999C256.1 74.4999 254.6 70.4 252 67.2C249.7 64.2 246.2 62.4999 242.5 62.4999C238.7 62.4999 235.2 64.2999 232.9 67.2999C227.7 74.0999 227.7 83.5999 232.9 90.3999C236.9 95.6999 244.5 96.7 249.8 92.7C250.7 92 251.4 91.2999 252.1 90.3999C254.8 87.0999 256.2 82.9999 256.1 78.7999L256 78.5999Z" fill="#15415B"/>
<path d="M317.9 67.1001C318.2 67.9001 318.4 68.8001 318.4 69.6001C318.4 70.3001 318.3 71.0001 318.1 71.7001C317.7 73.1001 316.8 74.3001 315.5 75.1001L300.5 83.3001C292.8 87.5001 288.2 90.0001 286.9 90.7001C289 93.9001 292.7 95.7001 296.6 95.4001C299.5 95.4001 302.4 94.3001 304.5 92.3001C306.8 90.2001 308.5 87.5001 309.4 84.4001C310.2 81.7001 311.8 80.4001 314.1 80.4001C315.8 80.4001 317.4 81.4001 318.1 83.0001C318.7 84.0001 319 85.1001 319 86.3001C319 87.0001 318.9 87.7001 318.7 88.4001C317.3 93.7001 314.4 98.4001 310.2 102C306.5 105.4 301.6 107.4 296.5 107.4C290 107.4 284.5 104.6 279.9 99.1001C270.7 87.3001 270.7 70.7001 279.9 58.9001C284.5 53.3001 290 50.6001 296.5 50.6001C301.2 50.6001 305.7 52.2001 309.3 55.2001C313.2 58.3001 316.2 62.4001 317.9 67.1001ZM296.5 62.7001C292.7 62.7001 289.2 64.5001 286.9 67.5001C284.3 70.8001 282.9 74.9001 283 79.1001V79.5001L305.8 67.1001C303.7 64.1001 300.2 62.4001 296.5 62.7001Z" fill="#15415B"/>
<path d="M348.6 50.5C355.1 50.5 360.6 53.3 365.2 58.8C374.4 70.6 374.4 87.2 365.2 99C360.6 104.6 355 107.3 348.6 107.3C342.1 107.3 336.6 104.5 332 99C322.8 87.2 322.8 70.6 332 58.8C336.6 53.3 342.2 50.5 348.6 50.5ZM348.6 62.8C344.8 62.8 341.3 64.6 339 67.6C333.8 74.4 333.8 83.9 339 90.7C343 96 350.5 97.1 355.8 93.1C356.7 92.4 357.5 91.6 358.2 90.7C363.5 83.9 363.5 74.4 358.2 67.6C355.9 64.5 352.4 62.7 348.6 62.8Z" fill="white"/>
<path d="M389.1 101.4C389.1 102.9 388.6 104.4 387.6 105.6C386.8 106.7 385.5 107.4 384.1 107.4H384C382.6 107.4 381.4 106.7 380.5 105.6C379.5 104.4 378.9 102.9 379 101.4V74.4999C378.9 68.3999 380.9 62.4 384.8 57.6C390.5 49.9 401.4 48.3 409.1 54.1C410.4 55.1 411.6 56.3 412.6 57.6C416.5 62.3 418.5 68.2999 418.4 74.4999V101.4C418.5 102.9 417.9 104.4 416.9 105.6C416.1 106.7 414.8 107.4 413.4 107.4H413.3C411.9 107.4 410.6 106.7 409.8 105.6C408.8 104.4 408.2 102.9 408.3 101.4V74.4999C408.4 71.4999 407.4 68.5 405.5 66.2C402.6 62.4 397.2 61.7 393.3 64.6C392.7 65.1 392.1 65.6 391.7 66.2C389.8 68.6 388.8 71.4999 388.9 74.4999L389.1 101.4Z" fill="white"/>
<path d="M111 164.8C109.4 164 108.1 162.8 107.2 161.3C106.3 159.8 105.9 158.1 105.9 156.2C105.9 153.6 106.5 151.3 107.6 149.3C108.7 147.2 110.3 145.6 112.4 144.4C114.5 143.2 116.8 142.6 119.5 142.6C121.5 142.6 123.2 142.9 124.7 143.6C126.2 144.3 127.3 145.3 128.1 146.6L124.4 149.7C123.2 147.9 121.5 147.1 119.1 147.1C117.5 147.1 116.1 147.5 114.8 148.3C113.6 149.1 112.6 150.1 111.9 151.5C111.2 152.8 110.9 154.3 110.9 156C110.9 157.7 111.4 159.1 112.5 160.1C113.6 161.1 115.1 161.6 117 161.6C119.3 161.6 121.3 160.7 122.8 159L125.8 162.2C123.6 164.8 120.5 166.1 116.5 166.1C114.6 166 112.6 165.6 111 164.8Z" fill="#12425D"/>
<path d="M131.6 164.9C130.3 164.3 129.3 163.3 128.6 162.2C127.9 161 127.6 159.7 127.6 158.1C127.6 156.2 128 154.5 128.9 152.9C129.8 151.4 131 150.2 132.5 149.3C134 148.4 135.8 148 137.7 148C139.4 148 140.9 148.3 142.2 149C143.5 149.6 144.5 150.6 145.2 151.7C145.9 152.9 146.2 154.2 146.2 155.8C146.2 157.7 145.8 159.4 144.9 161C144 162.5 142.8 163.7 141.3 164.6C139.7 165.5 138 165.9 136.1 165.9C134.4 165.9 132.9 165.5 131.6 164.9ZM138.9 161C139.7 160.5 140.2 159.8 140.7 159C141.1 158.1 141.3 157.1 141.3 156C141.3 154.8 141 153.9 140.3 153.2C139.6 152.5 138.7 152.2 137.5 152.2C136.5 152.2 135.7 152.4 134.9 152.9C134.1 153.4 133.6 154.1 133.1 154.9C132.7 155.8 132.5 156.8 132.5 157.9C132.5 159.1 132.8 160 133.5 160.7C134.2 161.4 135.1 161.7 136.3 161.7C137.3 161.7 138.2 161.4 138.9 161Z" fill="#12425D"/>
<path d="M169.5 141.6L164.9 165.6H160.3L160.6 163.9C159.2 165.2 157.5 165.9 155.4 165.9C154.1 165.9 152.9 165.6 151.8 165C150.7 164.4 149.8 163.5 149.2 162.3C148.5 161.1 148.2 159.7 148.2 158.2C148.2 156.3 148.6 154.6 149.4 153C150.2 151.5 151.3 150.3 152.8 149.4C154.2 148.5 155.8 148.1 157.5 148.1C158.7 148.1 159.8 148.3 160.7 148.7C161.6 149.1 162.4 149.8 162.9 150.6L164.6 141.7H169.5V141.6ZM159.5 161C160.3 160.5 160.8 159.8 161.3 159C161.7 158.1 161.9 157.1 161.9 156C161.9 154.8 161.6 153.9 160.9 153.2C160.2 152.5 159.3 152.2 158.1 152.2C157.1 152.2 156.3 152.4 155.5 152.9C154.7 153.4 154.2 154.1 153.7 154.9C153.3 155.8 153.1 156.8 153.1 157.9C153.1 159.1 153.4 160 154.1 160.7C154.8 161.4 155.7 161.7 156.9 161.7C157.9 161.7 158.7 161.4 159.5 161Z" fill="#12425D"/>
<path d="M187.4 158.3H174.5C174.7 160.7 176.1 161.9 178.9 161.9C179.8 161.9 180.6 161.8 181.4 161.5C182.2 161.2 182.9 160.8 183.5 160.3L185.5 163.6C184.6 164.4 183.5 165 182.3 165.3C181.1 165.7 179.8 165.9 178.5 165.9C176.8 165.9 175.2 165.6 173.9 164.9C172.6 164.3 171.6 163.4 170.9 162.2C170.2 161 169.9 159.6 169.9 158.1C169.9 156.2 170.3 154.5 171.2 152.9C172.1 151.3 173.2 150.2 174.7 149.3C176.2 148.4 177.9 148 179.8 148C181.4 148 182.8 148.3 184 148.9C185.2 149.5 186.1 150.4 186.8 151.6C187.5 152.8 187.8 154.1 187.8 155.6C187.7 156.4 187.6 157.3 187.4 158.3ZM176.6 152.7C175.8 153.3 175.2 154.2 174.9 155.3H183.3C183.3 154.2 183 153.3 182.3 152.7C181.6 152.1 180.7 151.7 179.6 151.7C178.3 151.7 177.4 152.1 176.6 152.7Z" fill="#12425D"/>
<path d="M210.3 157.8L208.8 165.6H203.7L205.2 157.5L199.6 143H204.7L208.6 153.1L216.5 143H221.7L210.3 157.8Z" fill="#E74C68"/>
<path d="M221.6 164.9C220.3 164.3 219.3 163.3 218.6 162.2C217.9 161 217.6 159.7 217.6 158.1C217.6 156.2 218 154.5 218.9 152.9C219.8 151.4 221 150.2 222.5 149.3C224 148.4 225.8 148 227.7 148C229.4 148 230.9 148.3 232.2 149C233.5 149.6 234.5 150.6 235.2 151.7C235.9 152.9 236.2 154.2 236.2 155.8C236.2 157.7 235.8 159.4 234.9 161C234 162.5 232.8 163.7 231.3 164.6C229.7 165.5 228 165.9 226.1 165.9C224.4 165.9 222.9 165.5 221.6 164.9ZM228.9 161C229.7 160.5 230.2 159.8 230.7 159C231.1 158.1 231.3 157.1 231.3 156C231.3 154.8 231 153.9 230.3 153.2C229.6 152.5 228.7 152.2 227.5 152.2C226.5 152.2 225.7 152.4 224.9 152.9C224.1 153.4 223.6 154.1 223.1 154.9C222.7 155.8 222.5 156.8 222.5 157.9C222.5 159.1 222.8 160 223.5 160.7C224.2 161.4 225.1 161.7 226.3 161.7C227.3 161.7 228.2 161.4 228.9 161Z" fill="#E74C68"/>
<path d="M258.1 148.2L254.7 165.6H250.1L250.4 163.7C249.7 164.4 248.8 164.9 247.9 165.3C247 165.7 246 165.8 244.9 165.8C243.1 165.8 241.6 165.3 240.5 164.2C239.4 163.1 238.9 161.7 238.9 159.8C238.9 159.1 239 158.4 239.1 157.7L240.9 148.1H245.8L244 157.4C243.9 157.8 243.9 158.2 243.9 158.7C243.9 160.5 244.8 161.4 246.7 161.4C247.9 161.4 248.9 161 249.8 160.3C250.6 159.6 251.2 158.4 251.4 157L253.1 148.2H258.1Z" fill="#E74C68"/>
<path d="M269.5 148.5C270.5 148.1 271.8 148 273.1 148L272.2 152.7C271.6 152.7 271.2 152.6 271.1 152.6C269.6 152.6 268.4 153 267.5 153.7C266.6 154.4 266 155.6 265.7 157.2L264.1 165.6H259.2L262.6 148.2H267.2L266.8 150.3C267.6 149.5 268.5 148.9 269.5 148.5Z" fill="#E74C68"/>
<path d="M290.6 147.2L289.4 153.2H299.6L298.8 157.4H288.7L287.1 165.6H282L286.4 143H303L302.2 147.2H290.6Z" fill="#12425D"/>
<path d="M321.5 148.2L318.1 165.6H313.5L313.8 163.7C313.1 164.4 312.2 164.9 311.3 165.3C310.4 165.7 309.4 165.8 308.3 165.8C306.5 165.8 305 165.3 303.9 164.2C302.8 163.1 302.3 161.7 302.3 159.8C302.3 159.1 302.4 158.4 302.5 157.7L304.3 148.1H309.2L307.4 157.4C307.3 157.8 307.3 158.2 307.3 158.7C307.3 160.5 308.2 161.4 310.1 161.4C311.3 161.4 312.3 161 313.2 160.3C314 159.6 314.6 158.4 314.8 157L316.5 148.2H321.5Z" fill="#12425D"/>
<path d="M329.4 159.5C329.4 159.7 329.3 159.9 329.3 160.2C329.3 161.3 329.9 161.9 331.1 161.9C331.7 161.9 332.4 161.7 333.1 161.3L333.8 164.9C332.7 165.6 331.3 165.9 329.6 165.9C328 165.9 326.7 165.5 325.8 164.6C324.8 163.7 324.4 162.6 324.4 161C324.4 160.6 324.5 160.1 324.6 159.5L325.9 152.5H323.3L324.1 148.6H326.7L327.5 144.4H332.4L331.6 148.6H335.8L335 152.5H330.8L329.4 159.5Z" fill="#12425D"/>
<path d="M356.7 148.2L353.3 165.6H348.7L349 163.7C348.3 164.4 347.4 164.9 346.5 165.3C345.6 165.7 344.6 165.8 343.5 165.8C341.7 165.8 340.2 165.3 339.1 164.2C338 163.1 337.5 161.7 337.5 159.8C337.5 159.1 337.6 158.4 337.7 157.7L339.5 148.1H344.4L342.6 157.4C342.5 157.8 342.5 158.2 342.5 158.7C342.5 160.5 343.4 161.4 345.3 161.4C346.5 161.4 347.5 161 348.4 160.3C349.2 159.6 349.8 158.4 350 157L351.7 148.2H356.7Z" fill="#12425D"/>
<path d="M368.1 148.5C369.1 148.1 370.4 148 371.7 148L370.8 152.7C370.2 152.7 369.8 152.6 369.7 152.6C368.2 152.6 367 153 366.1 153.7C365.2 154.4 364.6 155.6 364.3 157.2L362.7 165.6H357.8L361.2 148.2H365.8L365.4 150.3C366.2 149.5 367.1 148.9 368.1 148.5Z" fill="#12425D"/>
<path d="M389.1 158.3H376.2C376.4 160.7 377.8 161.9 380.6 161.9C381.5 161.9 382.3 161.8 383.1 161.5C383.9 161.2 384.6 160.8 385.2 160.3L387.2 163.6C386.3 164.4 385.2 165 384 165.3C382.8 165.7 381.5 165.9 380.2 165.9C378.5 165.9 376.9 165.6 375.6 164.9C374.3 164.3 373.3 163.4 372.6 162.2C371.9 161 371.6 159.6 371.6 158.1C371.6 156.2 372 154.5 372.9 152.9C373.8 151.3 374.9 150.2 376.4 149.3C377.9 148.4 379.6 148 381.5 148C383.1 148 384.5 148.3 385.7 148.9C386.9 149.5 387.8 150.4 388.5 151.6C389.2 152.8 389.5 154.1 389.5 155.6C389.4 156.4 389.3 157.3 389.1 158.3ZM378.2 152.7C377.4 153.3 376.8 154.2 376.5 155.3H384.9C384.9 154.2 384.6 153.3 383.9 152.7C383.2 152.1 382.3 151.7 381.2 151.7C380.1 151.7 379 152.1 378.2 152.7Z" fill="#12425D"/>
</g>
<defs>
<clipPath id="clip0_459_2">
<rect width="496" height="166" fill="white"/>
</clipPath>
</defs>
</svg>
