<svg xmlns="http://www.w3.org/2000/svg" version="1.1" xmlns:xlink="http://www.w3.org/1999/xlink" xmlns:svgjs="http://svgjs.dev/svgjs" width="1920" height="2500" preserveAspectRatio="none" viewBox="0 0 1920 2500">
    <g mask="url(&quot;#SvgjsMask1042&quot;)" fill="none">
        <rect width="1920" height="2500" x="0" y="0" fill="rgba(60, 60, 60, 1)"></rect>
        <path d="M0 100.65C12.36 36.93 30.32 13.17 93.13 0C270.32 -37.16 286.57 0 480 0C682.5 0 691.99 -25.73 885 0C931.99 6.27 926.83 27.63 960 64C1145.72 267.63 1138.47 274.72 1322.79 480C1378.47 542.01 1368.73 598.59 1440 598.59C1580.06 598.59 1710.49 598.9 1745.45 480C1798.49 299.6 1561.84 148.93 1616 0C1649.12 -91.07 1861.06 -93.06 1920 0C2013.06 146.94 1920 240 1920 480C1920 720 1920 720 1920 960C1920 1200 1920 1200 1920 1440C1920 1680 1920 1680 1920 1920C1920 2160 1920 2160 1920 2400C1920 2640 2040 2760 1920 2880C1800 3000 1680 2880 1440 2880C1289.55 2880 1270.27 2927.53 1139.1 2880C1030.27 2840.57 1064.86 2706.09 960 2706.09C781.76 2706.09 769.8 2808.66 572.9 2880C529.8 2895.62 526.45 2880 480 2880C240 2880 120 3000 0 2880C-120 2760 0 2640 0 2400C0 2160 0 2160 0 1920C0 1680 0 1680 0 1440C0 1200 0 1200 0 960C0 720 0 720 0 480C0 290.33 -34.2 276.93 0 100.65" stroke="rgba(157, 139, 119, 0.41)" stroke-width="2"></path>
        <path d="M1440 1334.63C1368.52 1334.63 1316.57 1383.97 1316.57 1440C1316.57 1502.11 1364.99 1570.91 1440 1570.91C1575.67 1570.91 1737.93 1499.94 1737.93 1440C1737.93 1381.8 1579.2 1334.63 1440 1334.63" stroke="rgba(157, 139, 119, 0.43)" stroke-width="2"></path>
        <path d="M480 2220C400.23 2220 283.64 2298.64 283.64 2400C283.64 2532.64 405.25 2688 480 2688C544.19 2688 561.51 2540.95 561.51 2400C561.51 2306.95 539.17 2220 480 2220" stroke="rgba(157, 139, 119, 0.43)" stroke-width="2"></path>
        <path d="M0 294.19C93.01 130.21 114.17 96.88 272.24 0C354.17 -50.22 376.12 0 480 0C588.75 0 604.71 -43.3 697.5 0C844.71 68.7 837.6 103.05 960 224C1080.48 343.05 1067.61 355.73 1183.26 480C1307.61 613.61 1283.03 661.55 1440 739.76C1651.4 845.08 1724.82 757.5 1920 847.06C1964.82 867.62 1920 903.53 1920 960C1920 1013.34 1962.54 1046.44 1920 1066.67C1722.54 1160.58 1661.19 1218.65 1440 1188.29C1272.62 1165.32 1285.31 1081.17 1142.86 960C1045.31 877.03 1058.39 780 960 780C841.74 780 709.57 863.06 709.57 960C709.57 1066 847.29 1061.67 960 1185.88C1065.08 1301.67 1043.75 1320.26 1145.14 1440C1283.75 1603.69 1270.06 1627.43 1440 1752.73C1595.56 1867.43 1639.1 1810.66 1796.13 1920C1879.1 1977.77 1895.28 1991.18 1920 2086.96C1957.22 2231.18 1920 2243.48 1920 2400C1920 2538.46 1967.12 2556.97 1920 2676.92C1872.84 2796.97 1848.41 2830.51 1731.43 2880C1608.41 2932.05 1585.72 2880 1440 2880C1379.11 2880 1318.21 2922.27 1318.21 2880C1318.21 2759.07 1352.56 2698.95 1440 2553.6C1496.94 2458.95 1606.96 2472.39 1606.96 2400C1606.96 2333.66 1521.06 2276.13 1440 2276.13C1366.47 2276.13 1379.88 2356.21 1297.78 2400C1139.88 2484.23 1119.51 2532.17 960 2532.17C864.58 2532.17 794.55 2493.03 787.92 2400C772.73 2186.95 993.25 2099.8 916.36 1920C839.29 1739.8 669.82 1680 480 1680C368.88 1680 411.37 1812.17 314.48 1920C171.37 2079.27 93.42 2214.19 0 2214.19C-63.82 2214.19 0 2067.1 0 1920C0 1789.71 -61.23 1758.93 0 1659.43C86.46 1518.93 295.38 1557.81 295.38 1440C295.38 1310.95 97.79 1324.62 0 1165.71C-49.9 1084.62 0 1062.86 0 960C0 720 0 720 0 480C0 387.1 -43.11 370.21 0 294.19" stroke="rgba(157, 139, 119, 0.43)" stroke-width="2"></path>
        <path d="M1920 240C1892.88 240 1816 85.86 1816 0C1816 -34.14 1904.28 -36.28 1920 0C1956.28 83.72 1944.88 240 1920 240" stroke="rgba(157, 139, 119, 0.43)" stroke-width="2"></path>
        <path d="M34.29 480C26.87 254.77 238.1 229.65 451.34 0C460.95 -10.35 465.67 0 480 0C495 0 498.42 -9.27 510 0C738.42 182.73 740.42 186.52 960 384C1007.28 426.52 1043.72 430.38 1043.72 480C1043.72 534.63 1016.9 553.14 960 592.5C735.04 748.14 703.8 897.2 480 870C240.94 840.95 41.2 689.77 34.29 480" stroke="rgba(157, 139, 119, 0.43)" stroke-width="2"></path>
        <path d="M1333.33 960C1333.33 920.01 1381.75 880.94 1440 880.94C1531.09 880.94 1632 919.86 1632 960C1632 1000.36 1530.82 1041.95 1440 1041.95C1381.48 1041.95 1333.33 1000.51 1333.33 960" stroke="rgba(157, 139, 119, 0.43)" stroke-width="2"></path>
        <path d="M903.53 1440C903.53 1426.94 934.78 1421.18 960 1421.18C969.87 1421.18 973.71 1429.64 973.71 1440C973.71 1457.51 972.93 1476.92 960 1476.92C937.84 1476.92 903.53 1454.81 903.53 1440" stroke="rgba(157, 139, 119, 0.43)" stroke-width="2"></path>
    </g>
    <defs>
        <mask id="SvgjsMask1042">
            <rect width="1920" height="2500" fill="#ffffff"></rect>
        </mask>
    </defs>
</svg>