<svg xmlns="http://www.w3.org/2000/svg" version="1.1" xmlns:xlink="http://www.w3.org/1999/xlink" xmlns:svgjs="http://svgjs.dev/svgjs" width="1440" height="560" preserveAspectRatio="none" viewBox="0 0 1440 560">
    <g mask="url(&quot;#SvgjsMask1573&quot;)" fill="none">
        <rect width="1440" height="560" x="0" y="0" fill="rgba(255, 227, 196, 1)"></rect>
        <g mask="url(&quot;#SvgjsMask1574&quot;)">
            <path d="M1357.5 277.5L1342.5 277.5L1327.5 277.5L1312.5 277.5L1297.5 277.5L1282.5 262.5M1072.5 277.5L1057.5 262.5M1147.5 277.5L1132.5 262.5L1117.5 262.5L1102.5 262.5L1087.5 262.5L1072.5 262.5M1342.5 292.5L1327.5 307.5L1312.5 307.5M697.5 277.5L682.5 292.5L667.5 292.5L652.5 307.5L637.5 307.5L622.5 307.5L607.5 307.5L592.5 307.5L577.5 307.5L562.5 307.5M817.5 277.5L802.5 262.5L787.5 262.5L772.5 262.5L757.5 262.5M892.5 262.5L877.5 277.5L862.5 277.5L847.5 277.5L832.5 292.5M1432.5 262.5L1417.5 277.5L1402.5 277.5L1387.5 277.5L1372.5 292.5L1357.5 292.5L1342.5 307.5M1177.5 277.5L1162.5 292.5L1147.5 292.5L1132.5 292.5L1117.5 292.5L1102.5 292.5L1087.5 292.5L1072.5 292.5M952.5 262.5L937.5 277.5L922.5 277.5L907.5 277.5L892.5 277.5L877.5 292.5M742.5 277.5L727.5 292.5M772.5 277.5L757.5 292.5L742.5 292.5L727.5 307.5L712.5 307.5L697.5 307.5L682.5 307.5M787.5 277.5L772.5 292.5L757.5 307.5L742.5 307.5L727.5 322.5L712.5 322.5L697.5 322.5L682.5 322.5L667.5 322.5M847.5 262.5L832.5 262.5L817.5 262.5L802.5 247.5M1462.5 277.5L1447.5 277.5L1432.5 262.5L1417.5 262.5L1402.5 262.5L1387.5 262.5L1372.5 277.5L1357.5 277.5L1342.5 292.5L1327.5 292.5L1312.5 292.5L1297.5 292.5L1282.5 277.5L1267.5 277.5L1252.5 277.5L1237.5 277.5L1222.5 277.5L1207.5 277.5L1192.5 277.5L1177.5 277.5L1162.5 277.5L1147.5 277.5L1132.5 277.5L1117.5 277.5L1102.5 277.5L1087.5 277.5L1072.5 277.5L1057.5 277.5L1042.5 262.5L1027.5 262.5L1012.5 262.5L997.5 262.5L982.5 262.5L967.5 262.5L952.5 262.5L937.5 262.5L922.5 262.5L907.5 262.5L892.5 262.5L877.5 262.5L862.5 262.5L847.5 262.5L832.5 277.5L817.5 277.5L802.5 277.5L787.5 277.5L772.5 277.5L757.5 277.5L742.5 277.5L727.5 277.5L712.5 277.5L697.5 277.5L682.5 277.5L667.5 277.5L652.5 277.5L637.5 277.5L622.5 277.5L607.5 277.5L592.5 277.5" stroke="rgba(203, 180, 159, 1)" stroke-width="2.5"></path>
            <path d="M588.75 277.5 a3.75 3.75 0 1 0 7.5 0 a3.75 3.75 0 1 0 -7.5 0zM1278.75 262.5 a3.75 3.75 0 1 0 7.5 0 a3.75 3.75 0 1 0 -7.5 0zM1053.75 262.5 a3.75 3.75 0 1 0 7.5 0 a3.75 3.75 0 1 0 -7.5 0zM1068.75 262.5 a3.75 3.75 0 1 0 7.5 0 a3.75 3.75 0 1 0 -7.5 0zM1308.75 307.5 a3.75 3.75 0 1 0 7.5 0 a3.75 3.75 0 1 0 -7.5 0zM558.75 307.5 a3.75 3.75 0 1 0 7.5 0 a3.75 3.75 0 1 0 -7.5 0zM753.75 262.5 a3.75 3.75 0 1 0 7.5 0 a3.75 3.75 0 1 0 -7.5 0zM828.75 292.5 a3.75 3.75 0 1 0 7.5 0 a3.75 3.75 0 1 0 -7.5 0zM1338.75 307.5 a3.75 3.75 0 1 0 7.5 0 a3.75 3.75 0 1 0 -7.5 0zM1068.75 292.5 a3.75 3.75 0 1 0 7.5 0 a3.75 3.75 0 1 0 -7.5 0zM873.75 292.5 a3.75 3.75 0 1 0 7.5 0 a3.75 3.75 0 1 0 -7.5 0zM723.75 292.5 a3.75 3.75 0 1 0 7.5 0 a3.75 3.75 0 1 0 -7.5 0zM678.75 307.5 a3.75 3.75 0 1 0 7.5 0 a3.75 3.75 0 1 0 -7.5 0zM663.75 322.5 a3.75 3.75 0 1 0 7.5 0 a3.75 3.75 0 1 0 -7.5 0zM798.75 247.5 a3.75 3.75 0 1 0 7.5 0 a3.75 3.75 0 1 0 -7.5 0z" fill="rgba(203, 180, 159, 1)"></path>
            <path d="M1267.5 307.5L1252.5 322.5M1222.5 307.5L1207.5 292.5M1372.5 322.5L1357.5 307.5M1312.5 322.5L1297.5 322.5L1282.5 322.5L1267.5 322.5M1387.5 307.5L1372.5 307.5M1252.5 307.5L1237.5 292.5L1222.5 292.5M1192.5 307.5L1177.5 292.5M1462.5 292.5L1447.5 292.5L1432.5 292.5L1417.5 292.5L1402.5 292.5L1387.5 307.5L1372.5 322.5L1357.5 322.5L1342.5 322.5L1327.5 322.5L1312.5 322.5L1297.5 307.5L1282.5 307.5L1267.5 307.5L1252.5 307.5L1237.5 307.5L1222.5 307.5L1207.5 307.5L1192.5 307.5L1177.5 307.5L1162.5 307.5L1147.5 307.5L1132.5 307.5L1117.5 307.5L1102.5 307.5L1087.5 307.5L1072.5 307.5L1057.5 292.5" stroke="rgba(203, 180, 159, 1)" stroke-width="2.5"></path>
            <path d="M1053.75 292.5 a3.75 3.75 0 1 0 7.5 0 a3.75 3.75 0 1 0 -7.5 0zM1248.75 322.5 a3.75 3.75 0 1 0 7.5 0 a3.75 3.75 0 1 0 -7.5 0zM1203.75 292.5 a3.75 3.75 0 1 0 7.5 0 a3.75 3.75 0 1 0 -7.5 0zM1353.75 307.5 a3.75 3.75 0 1 0 7.5 0 a3.75 3.75 0 1 0 -7.5 0zM1263.75 322.5 a3.75 3.75 0 1 0 7.5 0 a3.75 3.75 0 1 0 -7.5 0zM1368.75 307.5 a3.75 3.75 0 1 0 7.5 0 a3.75 3.75 0 1 0 -7.5 0zM1218.75 292.5 a3.75 3.75 0 1 0 7.5 0 a3.75 3.75 0 1 0 -7.5 0zM1173.75 292.5 a3.75 3.75 0 1 0 7.5 0 a3.75 3.75 0 1 0 -7.5 0z" fill="rgba(203, 180, 159, 1)"></path>
            <path d="M877.5 247.5L862.5 247.5L847.5 247.5L832.5 247.5L817.5 247.5L802.5 232.5L787.5 232.5L772.5 232.5M937.5 247.5L922.5 232.5L907.5 232.5L892.5 232.5L877.5 232.5M967.5 247.5L952.5 232.5L937.5 232.5M1327.5 247.5L1312.5 262.5L1297.5 262.5M817.5 217.5L802.5 217.5L787.5 217.5M1147.5 247.5L1132.5 232.5L1117.5 232.5M982.5 247.5L967.5 232.5M1252.5 247.5L1237.5 262.5L1222.5 262.5L1207.5 262.5L1192.5 262.5M1177.5 247.5L1162.5 262.5L1147.5 262.5M1072.5 247.5L1057.5 232.5L1042.5 232.5L1027.5 232.5L1012.5 232.5L997.5 232.5L982.5 232.5M787.5 202.5L772.5 202.5L757.5 202.5L742.5 202.5L727.5 217.5L712.5 217.5L697.5 217.5L682.5 202.5M1462.5 262.5L1447.5 262.5L1432.5 247.5L1417.5 247.5L1402.5 247.5L1387.5 247.5L1372.5 247.5L1357.5 247.5L1342.5 247.5L1327.5 247.5L1312.5 247.5L1297.5 247.5L1282.5 247.5L1267.5 247.5L1252.5 247.5L1237.5 247.5L1222.5 247.5L1207.5 247.5L1192.5 247.5L1177.5 247.5L1162.5 247.5L1147.5 247.5L1132.5 247.5L1117.5 247.5L1102.5 247.5L1087.5 247.5L1072.5 247.5L1057.5 247.5L1042.5 247.5L1027.5 247.5L1012.5 247.5L997.5 247.5L982.5 247.5L967.5 247.5L952.5 247.5L937.5 247.5L922.5 247.5L907.5 247.5L892.5 247.5L877.5 247.5L862.5 232.5L847.5 232.5L832.5 217.5L817.5 217.5L802.5 202.5L787.5 202.5L772.5 217.5" stroke="rgba(203, 180, 159, 1)" stroke-width="2.5"></path>
            <path d="M768.75 217.5 a3.75 3.75 0 1 0 7.5 0 a3.75 3.75 0 1 0 -7.5 0zM768.75 232.5 a3.75 3.75 0 1 0 7.5 0 a3.75 3.75 0 1 0 -7.5 0zM873.75 232.5 a3.75 3.75 0 1 0 7.5 0 a3.75 3.75 0 1 0 -7.5 0zM933.75 232.5 a3.75 3.75 0 1 0 7.5 0 a3.75 3.75 0 1 0 -7.5 0zM1293.75 262.5 a3.75 3.75 0 1 0 7.5 0 a3.75 3.75 0 1 0 -7.5 0zM783.75 217.5 a3.75 3.75 0 1 0 7.5 0 a3.75 3.75 0 1 0 -7.5 0zM1113.75 232.5 a3.75 3.75 0 1 0 7.5 0 a3.75 3.75 0 1 0 -7.5 0zM963.75 232.5 a3.75 3.75 0 1 0 7.5 0 a3.75 3.75 0 1 0 -7.5 0zM1188.75 262.5 a3.75 3.75 0 1 0 7.5 0 a3.75 3.75 0 1 0 -7.5 0zM1143.75 262.5 a3.75 3.75 0 1 0 7.5 0 a3.75 3.75 0 1 0 -7.5 0zM978.75 232.5 a3.75 3.75 0 1 0 7.5 0 a3.75 3.75 0 1 0 -7.5 0zM678.75 202.5 a3.75 3.75 0 1 0 7.5 0 a3.75 3.75 0 1 0 -7.5 0z" fill="rgba(203, 180, 159, 1)"></path>
            <path d="M1012.5 322.5L997.5 307.5M997.5 322.5L982.5 337.5L967.5 337.5L952.5 337.5M1177.5 322.5L1162.5 337.5L1147.5 337.5L1132.5 337.5M1072.5 322.5L1057.5 337.5L1042.5 337.5L1027.5 337.5L1012.5 337.5M1102.5 322.5L1087.5 337.5L1072.5 337.5L1057.5 352.5L1042.5 352.5L1027.5 352.5L1012.5 352.5L997.5 352.5L982.5 352.5L967.5 367.5L952.5 367.5L937.5 367.5L922.5 367.5M1207.5 322.5L1192.5 337.5L1177.5 337.5L1162.5 352.5M1237.5 322.5L1222.5 337.5L1207.5 337.5M1057.5 322.5L1042.5 307.5L1027.5 292.5M1462.5 307.5L1447.5 307.5L1432.5 307.5L1417.5 307.5L1402.5 307.5L1387.5 322.5L1372.5 337.5L1357.5 337.5L1342.5 337.5L1327.5 337.5L1312.5 337.5L1297.5 337.5L1282.5 337.5L1267.5 337.5L1252.5 337.5L1237.5 322.5L1222.5 322.5L1207.5 322.5L1192.5 322.5L1177.5 322.5L1162.5 322.5L1147.5 322.5L1132.5 322.5L1117.5 322.5L1102.5 322.5L1087.5 322.5L1072.5 322.5L1057.5 322.5L1042.5 322.5L1027.5 322.5L1012.5 322.5L997.5 322.5L982.5 322.5L967.5 322.5" stroke="rgba(203, 180, 159, 1)" stroke-width="2.5"></path>
            <path d="M963.75 322.5 a3.75 3.75 0 1 0 7.5 0 a3.75 3.75 0 1 0 -7.5 0zM993.75 307.5 a3.75 3.75 0 1 0 7.5 0 a3.75 3.75 0 1 0 -7.5 0zM948.75 337.5 a3.75 3.75 0 1 0 7.5 0 a3.75 3.75 0 1 0 -7.5 0zM1128.75 337.5 a3.75 3.75 0 1 0 7.5 0 a3.75 3.75 0 1 0 -7.5 0zM1008.75 337.5 a3.75 3.75 0 1 0 7.5 0 a3.75 3.75 0 1 0 -7.5 0zM918.75 367.5 a3.75 3.75 0 1 0 7.5 0 a3.75 3.75 0 1 0 -7.5 0zM1158.75 352.5 a3.75 3.75 0 1 0 7.5 0 a3.75 3.75 0 1 0 -7.5 0zM1203.75 337.5 a3.75 3.75 0 1 0 7.5 0 a3.75 3.75 0 1 0 -7.5 0zM1023.75 292.5 a3.75 3.75 0 1 0 7.5 0 a3.75 3.75 0 1 0 -7.5 0z" fill="rgba(203, 180, 159, 1)"></path>
            <path d="M952.5 217.5L937.5 202.5L922.5 202.5L907.5 202.5L892.5 202.5L877.5 202.5M592.5 157.5L577.5 172.5L562.5 172.5L547.5 172.5L532.5 172.5M1297.5 232.5L1282.5 217.5M1012.5 217.5L997.5 202.5L982.5 202.5M787.5 187.5L772.5 172.5L757.5 172.5L742.5 172.5M1192.5 217.5L1177.5 232.5L1162.5 232.5M1162.5 217.5L1147.5 202.5L1132.5 202.5M967.5 217.5L952.5 202.5M1087.5 217.5L1072.5 232.5M1342.5 232.5L1327.5 217.5L1312.5 217.5L1297.5 217.5M1252.5 232.5L1237.5 217.5M1267.5 232.5L1252.5 217.5M637.5 172.5L622.5 172.5M1387.5 232.5L1372.5 217.5L1357.5 217.5L1342.5 217.5M727.5 187.5L712.5 202.5L697.5 202.5M1462.5 247.5L1447.5 247.5L1432.5 232.5L1417.5 232.5L1402.5 232.5L1387.5 232.5L1372.5 232.5L1357.5 232.5L1342.5 232.5L1327.5 232.5L1312.5 232.5L1297.5 232.5L1282.5 232.5L1267.5 232.5L1252.5 232.5L1237.5 232.5L1222.5 232.5L1207.5 232.5L1192.5 217.5L1177.5 217.5L1162.5 217.5L1147.5 217.5L1132.5 217.5L1117.5 217.5L1102.5 217.5L1087.5 217.5L1072.5 217.5L1057.5 217.5L1042.5 217.5L1027.5 217.5L1012.5 217.5L997.5 217.5L982.5 217.5L967.5 217.5L952.5 217.5L937.5 217.5L922.5 217.5L907.5 217.5L892.5 217.5L877.5 217.5L862.5 217.5L847.5 217.5L832.5 202.5L817.5 202.5L802.5 187.5L787.5 187.5L772.5 187.5L757.5 187.5L742.5 187.5L727.5 187.5L712.5 187.5L697.5 187.5L682.5 187.5L667.5 187.5L652.5 172.5L637.5 172.5L622.5 157.5L607.5 157.5L592.5 157.5L577.5 157.5L562.5 157.5L547.5 157.5" stroke="rgba(203, 180, 159, 1)" stroke-width="2.5"></path>
            <path d="M543.75 157.5 a3.75 3.75 0 1 0 7.5 0 a3.75 3.75 0 1 0 -7.5 0zM873.75 202.5 a3.75 3.75 0 1 0 7.5 0 a3.75 3.75 0 1 0 -7.5 0zM528.75 172.5 a3.75 3.75 0 1 0 7.5 0 a3.75 3.75 0 1 0 -7.5 0zM1278.75 217.5 a3.75 3.75 0 1 0 7.5 0 a3.75 3.75 0 1 0 -7.5 0zM978.75 202.5 a3.75 3.75 0 1 0 7.5 0 a3.75 3.75 0 1 0 -7.5 0zM738.75 172.5 a3.75 3.75 0 1 0 7.5 0 a3.75 3.75 0 1 0 -7.5 0zM1158.75 232.5 a3.75 3.75 0 1 0 7.5 0 a3.75 3.75 0 1 0 -7.5 0zM1128.75 202.5 a3.75 3.75 0 1 0 7.5 0 a3.75 3.75 0 1 0 -7.5 0zM948.75 202.5 a3.75 3.75 0 1 0 7.5 0 a3.75 3.75 0 1 0 -7.5 0zM1068.75 232.5 a3.75 3.75 0 1 0 7.5 0 a3.75 3.75 0 1 0 -7.5 0zM1293.75 217.5 a3.75 3.75 0 1 0 7.5 0 a3.75 3.75 0 1 0 -7.5 0zM1233.75 217.5 a3.75 3.75 0 1 0 7.5 0 a3.75 3.75 0 1 0 -7.5 0zM1248.75 217.5 a3.75 3.75 0 1 0 7.5 0 a3.75 3.75 0 1 0 -7.5 0zM618.75 172.5 a3.75 3.75 0 1 0 7.5 0 a3.75 3.75 0 1 0 -7.5 0zM1338.75 217.5 a3.75 3.75 0 1 0 7.5 0 a3.75 3.75 0 1 0 -7.5 0zM693.75 202.5 a3.75 3.75 0 1 0 7.5 0 a3.75 3.75 0 1 0 -7.5 0z" fill="rgba(203, 180, 159, 1)"></path>
            <path d="M1192.5 352.5L1177.5 352.5M1147.5 367.5L1132.5 352.5L1117.5 352.5M1462.5 322.5L1447.5 322.5L1432.5 322.5L1417.5 322.5L1402.5 322.5L1387.5 337.5L1372.5 352.5L1357.5 352.5L1342.5 352.5L1327.5 352.5L1312.5 352.5L1297.5 352.5L1282.5 352.5L1267.5 352.5L1252.5 352.5L1237.5 352.5L1222.5 352.5L1207.5 352.5L1192.5 352.5L1177.5 367.5L1162.5 367.5L1147.5 367.5L1132.5 367.5" stroke="rgba(203, 180, 159, 1)" stroke-width="2.5"></path>
            <path d="M1128.75 367.5 a3.75 3.75 0 1 0 7.5 0 a3.75 3.75 0 1 0 -7.5 0zM1173.75 352.5 a3.75 3.75 0 1 0 7.5 0 a3.75 3.75 0 1 0 -7.5 0zM1113.75 352.5 a3.75 3.75 0 1 0 7.5 0 a3.75 3.75 0 1 0 -7.5 0z" fill="rgba(203, 180, 159, 1)"></path>
            <path d="M1417.5 217.5L1402.5 217.5M1162.5 187.5L1147.5 172.5L1132.5 172.5L1117.5 172.5L1102.5 172.5L1087.5 172.5L1072.5 172.5L1057.5 172.5L1042.5 172.5L1027.5 172.5L1012.5 172.5L997.5 172.5M1072.5 202.5L1057.5 202.5L1042.5 202.5L1027.5 202.5L1012.5 202.5M1312.5 202.5L1297.5 187.5M922.5 187.5L907.5 172.5M1252.5 202.5L1237.5 187.5L1222.5 187.5L1207.5 187.5L1192.5 187.5M982.5 187.5L967.5 172.5L952.5 172.5L937.5 172.5L922.5 172.5M1267.5 202.5L1252.5 187.5L1237.5 172.5L1222.5 172.5L1207.5 172.5L1192.5 172.5L1177.5 172.5L1162.5 172.5L1147.5 157.5L1132.5 157.5L1117.5 157.5M1372.5 202.5L1357.5 187.5L1342.5 187.5L1327.5 187.5L1312.5 187.5L1297.5 172.5M1222.5 202.5L1207.5 217.5M1462.5 232.5L1447.5 232.5L1432.5 217.5L1417.5 217.5L1402.5 202.5L1387.5 202.5L1372.5 202.5L1357.5 202.5L1342.5 202.5L1327.5 202.5L1312.5 202.5L1297.5 202.5L1282.5 202.5L1267.5 202.5L1252.5 202.5L1237.5 202.5L1222.5 202.5L1207.5 202.5L1192.5 202.5L1177.5 202.5L1162.5 187.5L1147.5 187.5L1132.5 187.5L1117.5 202.5L1102.5 202.5L1087.5 202.5L1072.5 202.5L1057.5 187.5L1042.5 187.5L1027.5 187.5L1012.5 187.5L997.5 187.5L982.5 187.5L967.5 187.5L952.5 187.5L937.5 187.5L922.5 187.5L907.5 187.5L892.5 187.5L877.5 187.5L862.5 202.5L847.5 202.5" stroke="rgba(203, 180, 159, 1)" stroke-width="2.5"></path>
            <path d="M843.75 202.5 a3.75 3.75 0 1 0 7.5 0 a3.75 3.75 0 1 0 -7.5 0zM1398.75 217.5 a3.75 3.75 0 1 0 7.5 0 a3.75 3.75 0 1 0 -7.5 0zM993.75 172.5 a3.75 3.75 0 1 0 7.5 0 a3.75 3.75 0 1 0 -7.5 0zM1008.75 202.5 a3.75 3.75 0 1 0 7.5 0 a3.75 3.75 0 1 0 -7.5 0zM1293.75 187.5 a3.75 3.75 0 1 0 7.5 0 a3.75 3.75 0 1 0 -7.5 0zM903.75 172.5 a3.75 3.75 0 1 0 7.5 0 a3.75 3.75 0 1 0 -7.5 0zM1188.75 187.5 a3.75 3.75 0 1 0 7.5 0 a3.75 3.75 0 1 0 -7.5 0zM918.75 172.5 a3.75 3.75 0 1 0 7.5 0 a3.75 3.75 0 1 0 -7.5 0zM1113.75 157.5 a3.75 3.75 0 1 0 7.5 0 a3.75 3.75 0 1 0 -7.5 0zM1293.75 172.5 a3.75 3.75 0 1 0 7.5 0 a3.75 3.75 0 1 0 -7.5 0zM1203.75 217.5 a3.75 3.75 0 1 0 7.5 0 a3.75 3.75 0 1 0 -7.5 0z" fill="rgba(203, 180, 159, 1)"></path>
            <path d="M1237.5 367.5L1222.5 382.5L1207.5 382.5M1177.5 382.5L1162.5 397.5L1147.5 397.5L1132.5 382.5M1462.5 337.5L1447.5 337.5L1432.5 337.5L1417.5 337.5L1402.5 337.5L1387.5 352.5L1372.5 367.5L1357.5 367.5L1342.5 367.5L1327.5 367.5L1312.5 367.5L1297.5 367.5L1282.5 367.5L1267.5 367.5L1252.5 367.5L1237.5 367.5L1222.5 367.5L1207.5 367.5L1192.5 367.5L1177.5 382.5L1162.5 382.5L1147.5 382.5" stroke="rgba(203, 180, 159, 1)" stroke-width="2.5"></path>
            <path d="M1143.75 382.5 a3.75 3.75 0 1 0 7.5 0 a3.75 3.75 0 1 0 -7.5 0zM1203.75 382.5 a3.75 3.75 0 1 0 7.5 0 a3.75 3.75 0 1 0 -7.5 0zM1128.75 382.5 a3.75 3.75 0 1 0 7.5 0 a3.75 3.75 0 1 0 -7.5 0z" fill="rgba(203, 180, 159, 1)"></path>
            <path d="M1462.5 217.5L1447.5 217.5L1432.5 202.5L1417.5 202.5L1402.5 187.5" stroke="rgba(203, 180, 159, 1)" stroke-width="2.5"></path>
            <path d="M1398.75 187.5 a3.75 3.75 0 1 0 7.5 0 a3.75 3.75 0 1 0 -7.5 0z" fill="rgba(203, 180, 159, 1)"></path>
            <path d="M1207.5 397.5L1192.5 397.5L1177.5 397.5M1462.5 352.5L1447.5 352.5L1432.5 352.5L1417.5 352.5L1402.5 352.5L1387.5 367.5L1372.5 382.5L1357.5 382.5L1342.5 382.5L1327.5 382.5L1312.5 382.5L1297.5 382.5L1282.5 382.5L1267.5 382.5L1252.5 382.5L1237.5 397.5L1222.5 397.5L1207.5 397.5L1192.5 382.5" stroke="rgba(203, 180, 159, 1)" stroke-width="2.5"></path>
            <path d="M1188.75 382.5 a3.75 3.75 0 1 0 7.5 0 a3.75 3.75 0 1 0 -7.5 0zM1173.75 397.5 a3.75 3.75 0 1 0 7.5 0 a3.75 3.75 0 1 0 -7.5 0z" fill="rgba(203, 180, 159, 1)"></path>
            <path d="M1267.5 142.5L1252.5 157.5L1237.5 157.5M1342.5 157.5L1327.5 157.5L1312.5 157.5L1297.5 157.5L1282.5 157.5M1402.5 172.5L1387.5 172.5L1372.5 172.5L1357.5 172.5L1342.5 172.5M1462.5 202.5L1447.5 202.5L1432.5 187.5L1417.5 187.5L1402.5 172.5L1387.5 157.5L1372.5 157.5L1357.5 157.5L1342.5 157.5L1327.5 142.5L1312.5 142.5L1297.5 142.5L1282.5 142.5L1267.5 142.5L1252.5 142.5" stroke="rgba(203, 180, 159, 1)" stroke-width="2.5"></path>
            <path d="M1248.75 142.5 a3.75 3.75 0 1 0 7.5 0 a3.75 3.75 0 1 0 -7.5 0zM1233.75 157.5 a3.75 3.75 0 1 0 7.5 0 a3.75 3.75 0 1 0 -7.5 0zM1278.75 157.5 a3.75 3.75 0 1 0 7.5 0 a3.75 3.75 0 1 0 -7.5 0zM1338.75 172.5 a3.75 3.75 0 1 0 7.5 0 a3.75 3.75 0 1 0 -7.5 0z" fill="rgba(203, 180, 159, 1)"></path>
            <path d="M1117.5 412.5L1102.5 397.5L1087.5 397.5L1072.5 397.5L1057.5 397.5L1042.5 397.5L1027.5 397.5L1012.5 397.5L997.5 397.5L982.5 397.5M952.5 412.5L937.5 397.5L922.5 397.5L907.5 397.5L892.5 382.5L877.5 382.5L862.5 382.5L847.5 382.5L832.5 382.5M1342.5 397.5L1327.5 412.5L1312.5 412.5L1297.5 412.5L1282.5 412.5M1267.5 397.5L1252.5 412.5M892.5 397.5L877.5 412.5L862.5 412.5L847.5 412.5L832.5 397.5M907.5 412.5L892.5 412.5M967.5 412.5L952.5 397.5L937.5 382.5L922.5 382.5L907.5 382.5L892.5 367.5L877.5 367.5M1132.5 412.5L1117.5 397.5L1102.5 382.5L1087.5 382.5L1072.5 382.5L1057.5 382.5L1042.5 382.5M1462.5 367.5L1447.5 367.5L1432.5 367.5L1417.5 367.5L1402.5 367.5L1387.5 382.5L1372.5 397.5L1357.5 397.5L1342.5 397.5L1327.5 397.5L1312.5 397.5L1297.5 397.5L1282.5 397.5L1267.5 397.5L1252.5 397.5L1237.5 412.5L1222.5 412.5L1207.5 412.5L1192.5 412.5L1177.5 412.5L1162.5 412.5L1147.5 412.5L1132.5 412.5L1117.5 412.5L1102.5 412.5L1087.5 412.5L1072.5 412.5L1057.5 412.5L1042.5 412.5L1027.5 412.5L1012.5 412.5L997.5 412.5L982.5 412.5L967.5 412.5L952.5 412.5L937.5 412.5L922.5 412.5L907.5 412.5L892.5 397.5L877.5 397.5" stroke="rgba(203, 180, 159, 1)" stroke-width="2.5"></path>
            <path d="M873.75 397.5 a3.75 3.75 0 1 0 7.5 0 a3.75 3.75 0 1 0 -7.5 0zM978.75 397.5 a3.75 3.75 0 1 0 7.5 0 a3.75 3.75 0 1 0 -7.5 0zM828.75 382.5 a3.75 3.75 0 1 0 7.5 0 a3.75 3.75 0 1 0 -7.5 0zM1278.75 412.5 a3.75 3.75 0 1 0 7.5 0 a3.75 3.75 0 1 0 -7.5 0zM1248.75 412.5 a3.75 3.75 0 1 0 7.5 0 a3.75 3.75 0 1 0 -7.5 0zM828.75 397.5 a3.75 3.75 0 1 0 7.5 0 a3.75 3.75 0 1 0 -7.5 0zM888.75 412.5 a3.75 3.75 0 1 0 7.5 0 a3.75 3.75 0 1 0 -7.5 0zM873.75 367.5 a3.75 3.75 0 1 0 7.5 0 a3.75 3.75 0 1 0 -7.5 0zM1038.75 382.5 a3.75 3.75 0 1 0 7.5 0 a3.75 3.75 0 1 0 -7.5 0z" fill="rgba(203, 180, 159, 1)"></path>
            <path d="M1462.5 187.5L1447.5 187.5L1432.5 172.5L1417.5 172.5" stroke="rgba(203, 180, 159, 1)" stroke-width="2.5"></path>
            <path d="M1413.75 172.5 a3.75 3.75 0 1 0 7.5 0 a3.75 3.75 0 1 0 -7.5 0z" fill="rgba(203, 180, 159, 1)"></path>
            <path d="M1282.5 427.5L1267.5 442.5L1252.5 442.5L1237.5 442.5L1222.5 442.5L1207.5 442.5L1192.5 442.5L1177.5 442.5M787.5 427.5L772.5 412.5L757.5 412.5L742.5 412.5M1357.5 412.5L1342.5 412.5M1057.5 427.5L1042.5 442.5M1102.5 427.5L1087.5 442.5L1072.5 442.5L1057.5 442.5M1132.5 427.5L1117.5 442.5L1102.5 442.5M757.5 427.5L742.5 442.5L727.5 442.5L712.5 442.5M1297.5 427.5L1282.5 442.5M682.5 457.5L667.5 442.5L652.5 442.5L637.5 442.5L622.5 442.5M817.5 427.5L802.5 412.5L787.5 412.5M1162.5 427.5L1147.5 442.5L1132.5 442.5M697.5 442.5L682.5 442.5M727.5 427.5L712.5 412.5L697.5 412.5M1462.5 382.5L1447.5 382.5L1432.5 382.5L1417.5 382.5L1402.5 382.5L1387.5 397.5L1372.5 412.5L1357.5 412.5L1342.5 427.5L1327.5 427.5L1312.5 427.5L1297.5 427.5L1282.5 427.5L1267.5 427.5L1252.5 427.5L1237.5 427.5L1222.5 427.5L1207.5 427.5L1192.5 427.5L1177.5 427.5L1162.5 427.5L1147.5 427.5L1132.5 427.5L1117.5 427.5L1102.5 427.5L1087.5 427.5L1072.5 427.5L1057.5 427.5L1042.5 427.5L1027.5 427.5L1012.5 427.5L997.5 427.5L982.5 427.5L967.5 427.5L952.5 427.5L937.5 427.5L922.5 427.5L907.5 427.5L892.5 427.5L877.5 427.5L862.5 427.5L847.5 427.5L832.5 427.5L817.5 427.5L802.5 427.5L787.5 427.5L772.5 427.5L757.5 427.5L742.5 427.5L727.5 427.5L712.5 427.5L697.5 442.5L682.5 457.5L667.5 457.5" stroke="rgba(203, 180, 159, 1)" stroke-width="2.5"></path>
            <path d="M663.75 457.5 a3.75 3.75 0 1 0 7.5 0 a3.75 3.75 0 1 0 -7.5 0zM1173.75 442.5 a3.75 3.75 0 1 0 7.5 0 a3.75 3.75 0 1 0 -7.5 0zM738.75 412.5 a3.75 3.75 0 1 0 7.5 0 a3.75 3.75 0 1 0 -7.5 0zM1338.75 412.5 a3.75 3.75 0 1 0 7.5 0 a3.75 3.75 0 1 0 -7.5 0zM1038.75 442.5 a3.75 3.75 0 1 0 7.5 0 a3.75 3.75 0 1 0 -7.5 0zM1053.75 442.5 a3.75 3.75 0 1 0 7.5 0 a3.75 3.75 0 1 0 -7.5 0zM1098.75 442.5 a3.75 3.75 0 1 0 7.5 0 a3.75 3.75 0 1 0 -7.5 0zM708.75 442.5 a3.75 3.75 0 1 0 7.5 0 a3.75 3.75 0 1 0 -7.5 0zM1278.75 442.5 a3.75 3.75 0 1 0 7.5 0 a3.75 3.75 0 1 0 -7.5 0zM618.75 442.5 a3.75 3.75 0 1 0 7.5 0 a3.75 3.75 0 1 0 -7.5 0zM783.75 412.5 a3.75 3.75 0 1 0 7.5 0 a3.75 3.75 0 1 0 -7.5 0zM1128.75 442.5 a3.75 3.75 0 1 0 7.5 0 a3.75 3.75 0 1 0 -7.5 0zM678.75 442.5 a3.75 3.75 0 1 0 7.5 0 a3.75 3.75 0 1 0 -7.5 0zM693.75 412.5 a3.75 3.75 0 1 0 7.5 0 a3.75 3.75 0 1 0 -7.5 0z" fill="rgba(203, 180, 159, 1)"></path>
            <path d="M1282.5 127.5L1267.5 112.5L1252.5 112.5L1237.5 112.5M1207.5 127.5L1192.5 112.5M1177.5 127.5L1162.5 112.5L1147.5 97.5L1132.5 97.5M1222.5 127.5L1207.5 142.5M1237.5 127.5L1222.5 142.5L1207.5 157.5L1192.5 157.5L1177.5 157.5M1462.5 172.5L1447.5 172.5L1432.5 157.5L1417.5 157.5L1402.5 157.5L1387.5 142.5L1372.5 142.5L1357.5 142.5L1342.5 142.5L1327.5 127.5L1312.5 127.5L1297.5 127.5L1282.5 127.5L1267.5 127.5L1252.5 127.5L1237.5 127.5L1222.5 127.5L1207.5 127.5L1192.5 127.5L1177.5 127.5L1162.5 127.5" stroke="rgba(203, 180, 159, 1)" stroke-width="2.5"></path>
            <path d="M1158.75 127.5 a3.75 3.75 0 1 0 7.5 0 a3.75 3.75 0 1 0 -7.5 0zM1233.75 112.5 a3.75 3.75 0 1 0 7.5 0 a3.75 3.75 0 1 0 -7.5 0zM1188.75 112.5 a3.75 3.75 0 1 0 7.5 0 a3.75 3.75 0 1 0 -7.5 0zM1128.75 97.5 a3.75 3.75 0 1 0 7.5 0 a3.75 3.75 0 1 0 -7.5 0zM1203.75 142.5 a3.75 3.75 0 1 0 7.5 0 a3.75 3.75 0 1 0 -7.5 0zM1173.75 157.5 a3.75 3.75 0 1 0 7.5 0 a3.75 3.75 0 1 0 -7.5 0z" fill="rgba(203, 180, 159, 1)"></path>
            <path d="M1462.5 397.5L1447.5 397.5L1432.5 397.5L1417.5 397.5L1402.5 397.5L1387.5 412.5L1372.5 427.5L1357.5 427.5L1342.5 442.5L1327.5 442.5L1312.5 442.5" stroke="rgba(203, 180, 159, 1)" stroke-width="2.5"></path>
            <path d="M1308.75 442.5 a3.75 3.75 0 1 0 7.5 0 a3.75 3.75 0 1 0 -7.5 0z" fill="rgba(203, 180, 159, 1)"></path>
            <path d="M1432.5 142.5L1417.5 142.5L1402.5 142.5M1222.5 97.5L1207.5 97.5M1177.5 82.5L1162.5 97.5M1372.5 127.5L1357.5 127.5L1342.5 127.5M1192.5 82.5L1177.5 97.5M1462.5 157.5L1447.5 157.5L1432.5 142.5L1417.5 127.5L1402.5 127.5L1387.5 127.5L1372.5 127.5L1357.5 112.5L1342.5 112.5L1327.5 112.5L1312.5 112.5L1297.5 112.5L1282.5 97.5L1267.5 97.5L1252.5 97.5L1237.5 97.5L1222.5 97.5L1207.5 82.5L1192.5 82.5L1177.5 82.5L1162.5 82.5L1147.5 82.5L1132.5 82.5" stroke="rgba(203, 180, 159, 1)" stroke-width="2.5"></path>
            <path d="M1128.75 82.5 a3.75 3.75 0 1 0 7.5 0 a3.75 3.75 0 1 0 -7.5 0zM1398.75 142.5 a3.75 3.75 0 1 0 7.5 0 a3.75 3.75 0 1 0 -7.5 0zM1203.75 97.5 a3.75 3.75 0 1 0 7.5 0 a3.75 3.75 0 1 0 -7.5 0zM1158.75 97.5 a3.75 3.75 0 1 0 7.5 0 a3.75 3.75 0 1 0 -7.5 0zM1338.75 127.5 a3.75 3.75 0 1 0 7.5 0 a3.75 3.75 0 1 0 -7.5 0zM1173.75 97.5 a3.75 3.75 0 1 0 7.5 0 a3.75 3.75 0 1 0 -7.5 0z" fill="rgba(203, 180, 159, 1)"></path>
            <path d="M967.5 442.5L952.5 457.5L937.5 457.5L922.5 457.5M1117.5 457.5L1102.5 472.5L1087.5 472.5L1072.5 472.5L1057.5 472.5M832.5 442.5L817.5 457.5L802.5 457.5L787.5 457.5L772.5 457.5M1312.5 457.5L1297.5 472.5M1327.5 457.5L1312.5 472.5L1297.5 487.5L1282.5 487.5L1267.5 472.5L1252.5 472.5L1237.5 472.5L1222.5 472.5L1207.5 472.5L1192.5 472.5M877.5 442.5L862.5 457.5M1357.5 457.5L1342.5 472.5M1372.5 442.5L1357.5 442.5M982.5 442.5L967.5 457.5L952.5 472.5M997.5 442.5L982.5 457.5L967.5 472.5L952.5 487.5L937.5 487.5L922.5 487.5L907.5 502.5L892.5 502.5L877.5 502.5L862.5 517.5M1147.5 457.5L1132.5 472.5L1117.5 472.5L1102.5 487.5L1087.5 487.5L1072.5 487.5L1057.5 487.5L1042.5 502.5L1027.5 502.5M1462.5 412.5L1447.5 412.5L1432.5 412.5L1417.5 412.5L1402.5 412.5L1387.5 427.5L1372.5 442.5L1357.5 457.5L1342.5 457.5L1327.5 457.5L1312.5 457.5L1297.5 457.5L1282.5 457.5L1267.5 457.5L1252.5 457.5L1237.5 457.5L1222.5 457.5L1207.5 457.5L1192.5 457.5L1177.5 457.5L1162.5 457.5L1147.5 457.5L1132.5 457.5L1117.5 457.5L1102.5 457.5L1087.5 457.5L1072.5 457.5L1057.5 457.5L1042.5 457.5L1027.5 442.5L1012.5 442.5L997.5 442.5L982.5 442.5L967.5 442.5L952.5 442.5L937.5 442.5L922.5 442.5L907.5 442.5L892.5 442.5L877.5 442.5L862.5 442.5L847.5 442.5L832.5 442.5L817.5 442.5L802.5 442.5" stroke="rgba(203, 180, 159, 1)" stroke-width="2.5"></path>
            <path d="M798.75 442.5 a3.75 3.75 0 1 0 7.5 0 a3.75 3.75 0 1 0 -7.5 0zM918.75 457.5 a3.75 3.75 0 1 0 7.5 0 a3.75 3.75 0 1 0 -7.5 0zM1053.75 472.5 a3.75 3.75 0 1 0 7.5 0 a3.75 3.75 0 1 0 -7.5 0zM768.75 457.5 a3.75 3.75 0 1 0 7.5 0 a3.75 3.75 0 1 0 -7.5 0zM1293.75 472.5 a3.75 3.75 0 1 0 7.5 0 a3.75 3.75 0 1 0 -7.5 0zM1188.75 472.5 a3.75 3.75 0 1 0 7.5 0 a3.75 3.75 0 1 0 -7.5 0zM858.75 457.5 a3.75 3.75 0 1 0 7.5 0 a3.75 3.75 0 1 0 -7.5 0zM1338.75 472.5 a3.75 3.75 0 1 0 7.5 0 a3.75 3.75 0 1 0 -7.5 0zM1353.75 442.5 a3.75 3.75 0 1 0 7.5 0 a3.75 3.75 0 1 0 -7.5 0zM948.75 472.5 a3.75 3.75 0 1 0 7.5 0 a3.75 3.75 0 1 0 -7.5 0zM858.75 517.5 a3.75 3.75 0 1 0 7.5 0 a3.75 3.75 0 1 0 -7.5 0zM1023.75 502.5 a3.75 3.75 0 1 0 7.5 0 a3.75 3.75 0 1 0 -7.5 0z" fill="rgba(203, 180, 159, 1)"></path>
            <path d="M1117.5 67.5L1102.5 82.5L1087.5 82.5L1072.5 82.5L1057.5 82.5L1042.5 97.5M1132.5 67.5L1117.5 52.5L1102.5 52.5L1087.5 37.5M1162.5 67.5L1147.5 52.5L1132.5 52.5L1117.5 37.5L1102.5 37.5M1192.5 67.5L1177.5 52.5L1162.5 52.5L1147.5 37.5L1132.5 37.5M1402.5 112.5L1387.5 97.5L1372.5 97.5L1357.5 82.5L1342.5 82.5L1327.5 82.5M1252.5 82.5L1237.5 67.5L1222.5 67.5L1207.5 52.5L1192.5 52.5M982.5 67.5L967.5 82.5L952.5 82.5L937.5 82.5L922.5 82.5L907.5 82.5M1312.5 97.5L1297.5 82.5L1282.5 67.5M952.5 67.5L937.5 52.5L922.5 52.5L907.5 52.5M1462.5 142.5L1447.5 142.5L1432.5 127.5L1417.5 112.5L1402.5 112.5L1387.5 112.5L1372.5 112.5L1357.5 97.5L1342.5 97.5L1327.5 97.5L1312.5 97.5L1297.5 97.5L1282.5 82.5L1267.5 82.5L1252.5 82.5L1237.5 82.5L1222.5 82.5L1207.5 67.5L1192.5 67.5L1177.5 67.5L1162.5 67.5L1147.5 67.5L1132.5 67.5L1117.5 67.5L1102.5 67.5L1087.5 67.5L1072.5 67.5L1057.5 67.5L1042.5 82.5L1027.5 82.5L1012.5 82.5L997.5 82.5L982.5 67.5L967.5 67.5L952.5 67.5L937.5 67.5L922.5 67.5" stroke="rgba(203, 180, 159, 1)" stroke-width="2.5"></path>
            <path d="M918.75 67.5 a3.75 3.75 0 1 0 7.5 0 a3.75 3.75 0 1 0 -7.5 0zM1038.75 97.5 a3.75 3.75 0 1 0 7.5 0 a3.75 3.75 0 1 0 -7.5 0zM1083.75 37.5 a3.75 3.75 0 1 0 7.5 0 a3.75 3.75 0 1 0 -7.5 0zM1098.75 37.5 a3.75 3.75 0 1 0 7.5 0 a3.75 3.75 0 1 0 -7.5 0zM1128.75 37.5 a3.75 3.75 0 1 0 7.5 0 a3.75 3.75 0 1 0 -7.5 0zM1323.75 82.5 a3.75 3.75 0 1 0 7.5 0 a3.75 3.75 0 1 0 -7.5 0zM1188.75 52.5 a3.75 3.75 0 1 0 7.5 0 a3.75 3.75 0 1 0 -7.5 0zM903.75 82.5 a3.75 3.75 0 1 0 7.5 0 a3.75 3.75 0 1 0 -7.5 0zM1278.75 67.5 a3.75 3.75 0 1 0 7.5 0 a3.75 3.75 0 1 0 -7.5 0zM903.75 52.5 a3.75 3.75 0 1 0 7.5 0 a3.75 3.75 0 1 0 -7.5 0z" fill="rgba(203, 180, 159, 1)"></path>
        </g>
    </g>
    <defs>
        <mask id="SvgjsMask1573">
            <rect width="1440" height="560" fill="#ffffff"></rect>
        </mask>
        <mask id="SvgjsMask1574">
            <rect width="1440" height="560" fill="white"></rect>
            <path d="M590.62 277.5 a1.88 1.88 0 1 0 3.76 0 a1.88 1.88 0 1 0 -3.76 0zM1280.62 262.5 a1.88 1.88 0 1 0 3.76 0 a1.88 1.88 0 1 0 -3.76 0zM1055.62 262.5 a1.88 1.88 0 1 0 3.76 0 a1.88 1.88 0 1 0 -3.76 0zM1070.62 262.5 a1.88 1.88 0 1 0 3.76 0 a1.88 1.88 0 1 0 -3.76 0zM1310.62 307.5 a1.88 1.88 0 1 0 3.76 0 a1.88 1.88 0 1 0 -3.76 0zM560.62 307.5 a1.88 1.88 0 1 0 3.76 0 a1.88 1.88 0 1 0 -3.76 0zM755.62 262.5 a1.88 1.88 0 1 0 3.76 0 a1.88 1.88 0 1 0 -3.76 0zM830.62 292.5 a1.88 1.88 0 1 0 3.76 0 a1.88 1.88 0 1 0 -3.76 0zM1340.62 307.5 a1.88 1.88 0 1 0 3.76 0 a1.88 1.88 0 1 0 -3.76 0zM1070.62 292.5 a1.88 1.88 0 1 0 3.76 0 a1.88 1.88 0 1 0 -3.76 0zM875.62 292.5 a1.88 1.88 0 1 0 3.76 0 a1.88 1.88 0 1 0 -3.76 0zM725.62 292.5 a1.88 1.88 0 1 0 3.76 0 a1.88 1.88 0 1 0 -3.76 0zM680.62 307.5 a1.88 1.88 0 1 0 3.76 0 a1.88 1.88 0 1 0 -3.76 0zM665.62 322.5 a1.88 1.88 0 1 0 3.76 0 a1.88 1.88 0 1 0 -3.76 0zM800.62 247.5 a1.88 1.88 0 1 0 3.76 0 a1.88 1.88 0 1 0 -3.76 0z" fill="black"></path>
            <path d="M1055.62 292.5 a1.88 1.88 0 1 0 3.76 0 a1.88 1.88 0 1 0 -3.76 0zM1250.62 322.5 a1.88 1.88 0 1 0 3.76 0 a1.88 1.88 0 1 0 -3.76 0zM1205.62 292.5 a1.88 1.88 0 1 0 3.76 0 a1.88 1.88 0 1 0 -3.76 0zM1355.62 307.5 a1.88 1.88 0 1 0 3.76 0 a1.88 1.88 0 1 0 -3.76 0zM1265.62 322.5 a1.88 1.88 0 1 0 3.76 0 a1.88 1.88 0 1 0 -3.76 0zM1370.62 307.5 a1.88 1.88 0 1 0 3.76 0 a1.88 1.88 0 1 0 -3.76 0zM1220.62 292.5 a1.88 1.88 0 1 0 3.76 0 a1.88 1.88 0 1 0 -3.76 0zM1175.62 292.5 a1.88 1.88 0 1 0 3.76 0 a1.88 1.88 0 1 0 -3.76 0z" fill="black"></path>
            <path d="M770.62 217.5 a1.88 1.88 0 1 0 3.76 0 a1.88 1.88 0 1 0 -3.76 0zM770.62 232.5 a1.88 1.88 0 1 0 3.76 0 a1.88 1.88 0 1 0 -3.76 0zM875.62 232.5 a1.88 1.88 0 1 0 3.76 0 a1.88 1.88 0 1 0 -3.76 0zM935.62 232.5 a1.88 1.88 0 1 0 3.76 0 a1.88 1.88 0 1 0 -3.76 0zM1295.62 262.5 a1.88 1.88 0 1 0 3.76 0 a1.88 1.88 0 1 0 -3.76 0zM785.62 217.5 a1.88 1.88 0 1 0 3.76 0 a1.88 1.88 0 1 0 -3.76 0zM1115.62 232.5 a1.88 1.88 0 1 0 3.76 0 a1.88 1.88 0 1 0 -3.76 0zM965.62 232.5 a1.88 1.88 0 1 0 3.76 0 a1.88 1.88 0 1 0 -3.76 0zM1190.62 262.5 a1.88 1.88 0 1 0 3.76 0 a1.88 1.88 0 1 0 -3.76 0zM1145.62 262.5 a1.88 1.88 0 1 0 3.76 0 a1.88 1.88 0 1 0 -3.76 0zM980.62 232.5 a1.88 1.88 0 1 0 3.76 0 a1.88 1.88 0 1 0 -3.76 0zM680.62 202.5 a1.88 1.88 0 1 0 3.76 0 a1.88 1.88 0 1 0 -3.76 0z" fill="black"></path>
            <path d="M965.62 322.5 a1.88 1.88 0 1 0 3.76 0 a1.88 1.88 0 1 0 -3.76 0zM995.62 307.5 a1.88 1.88 0 1 0 3.76 0 a1.88 1.88 0 1 0 -3.76 0zM950.62 337.5 a1.88 1.88 0 1 0 3.76 0 a1.88 1.88 0 1 0 -3.76 0zM1130.62 337.5 a1.88 1.88 0 1 0 3.76 0 a1.88 1.88 0 1 0 -3.76 0zM1010.62 337.5 a1.88 1.88 0 1 0 3.76 0 a1.88 1.88 0 1 0 -3.76 0zM920.62 367.5 a1.88 1.88 0 1 0 3.76 0 a1.88 1.88 0 1 0 -3.76 0zM1160.62 352.5 a1.88 1.88 0 1 0 3.76 0 a1.88 1.88 0 1 0 -3.76 0zM1205.62 337.5 a1.88 1.88 0 1 0 3.76 0 a1.88 1.88 0 1 0 -3.76 0zM1025.62 292.5 a1.88 1.88 0 1 0 3.76 0 a1.88 1.88 0 1 0 -3.76 0z" fill="black"></path>
            <path d="M545.62 157.5 a1.88 1.88 0 1 0 3.76 0 a1.88 1.88 0 1 0 -3.76 0zM875.62 202.5 a1.88 1.88 0 1 0 3.76 0 a1.88 1.88 0 1 0 -3.76 0zM530.62 172.5 a1.88 1.88 0 1 0 3.76 0 a1.88 1.88 0 1 0 -3.76 0zM1280.62 217.5 a1.88 1.88 0 1 0 3.76 0 a1.88 1.88 0 1 0 -3.76 0zM980.62 202.5 a1.88 1.88 0 1 0 3.76 0 a1.88 1.88 0 1 0 -3.76 0zM740.62 172.5 a1.88 1.88 0 1 0 3.76 0 a1.88 1.88 0 1 0 -3.76 0zM1160.62 232.5 a1.88 1.88 0 1 0 3.76 0 a1.88 1.88 0 1 0 -3.76 0zM1130.62 202.5 a1.88 1.88 0 1 0 3.76 0 a1.88 1.88 0 1 0 -3.76 0zM950.62 202.5 a1.88 1.88 0 1 0 3.76 0 a1.88 1.88 0 1 0 -3.76 0zM1070.62 232.5 a1.88 1.88 0 1 0 3.76 0 a1.88 1.88 0 1 0 -3.76 0zM1295.62 217.5 a1.88 1.88 0 1 0 3.76 0 a1.88 1.88 0 1 0 -3.76 0zM1235.62 217.5 a1.88 1.88 0 1 0 3.76 0 a1.88 1.88 0 1 0 -3.76 0zM1250.62 217.5 a1.88 1.88 0 1 0 3.76 0 a1.88 1.88 0 1 0 -3.76 0zM620.62 172.5 a1.88 1.88 0 1 0 3.76 0 a1.88 1.88 0 1 0 -3.76 0zM1340.62 217.5 a1.88 1.88 0 1 0 3.76 0 a1.88 1.88 0 1 0 -3.76 0zM695.62 202.5 a1.88 1.88 0 1 0 3.76 0 a1.88 1.88 0 1 0 -3.76 0z" fill="black"></path>
            <path d="M1130.62 367.5 a1.88 1.88 0 1 0 3.76 0 a1.88 1.88 0 1 0 -3.76 0zM1175.62 352.5 a1.88 1.88 0 1 0 3.76 0 a1.88 1.88 0 1 0 -3.76 0zM1115.62 352.5 a1.88 1.88 0 1 0 3.76 0 a1.88 1.88 0 1 0 -3.76 0z" fill="black"></path>
            <path d="M845.62 202.5 a1.88 1.88 0 1 0 3.76 0 a1.88 1.88 0 1 0 -3.76 0zM1400.62 217.5 a1.88 1.88 0 1 0 3.76 0 a1.88 1.88 0 1 0 -3.76 0zM995.62 172.5 a1.88 1.88 0 1 0 3.76 0 a1.88 1.88 0 1 0 -3.76 0zM1010.62 202.5 a1.88 1.88 0 1 0 3.76 0 a1.88 1.88 0 1 0 -3.76 0zM1295.62 187.5 a1.88 1.88 0 1 0 3.76 0 a1.88 1.88 0 1 0 -3.76 0zM905.62 172.5 a1.88 1.88 0 1 0 3.76 0 a1.88 1.88 0 1 0 -3.76 0zM1190.62 187.5 a1.88 1.88 0 1 0 3.76 0 a1.88 1.88 0 1 0 -3.76 0zM920.62 172.5 a1.88 1.88 0 1 0 3.76 0 a1.88 1.88 0 1 0 -3.76 0zM1115.62 157.5 a1.88 1.88 0 1 0 3.76 0 a1.88 1.88 0 1 0 -3.76 0zM1295.62 172.5 a1.88 1.88 0 1 0 3.76 0 a1.88 1.88 0 1 0 -3.76 0zM1205.62 217.5 a1.88 1.88 0 1 0 3.76 0 a1.88 1.88 0 1 0 -3.76 0z" fill="black"></path>
            <path d="M1145.62 382.5 a1.88 1.88 0 1 0 3.76 0 a1.88 1.88 0 1 0 -3.76 0zM1205.62 382.5 a1.88 1.88 0 1 0 3.76 0 a1.88 1.88 0 1 0 -3.76 0zM1130.62 382.5 a1.88 1.88 0 1 0 3.76 0 a1.88 1.88 0 1 0 -3.76 0z" fill="black"></path>
            <path d="M1400.62 187.5 a1.88 1.88 0 1 0 3.76 0 a1.88 1.88 0 1 0 -3.76 0z" fill="black"></path>
            <path d="M1190.62 382.5 a1.88 1.88 0 1 0 3.76 0 a1.88 1.88 0 1 0 -3.76 0zM1175.62 397.5 a1.88 1.88 0 1 0 3.76 0 a1.88 1.88 0 1 0 -3.76 0z" fill="black"></path>
            <path d="M1250.62 142.5 a1.88 1.88 0 1 0 3.76 0 a1.88 1.88 0 1 0 -3.76 0zM1235.62 157.5 a1.88 1.88 0 1 0 3.76 0 a1.88 1.88 0 1 0 -3.76 0zM1280.62 157.5 a1.88 1.88 0 1 0 3.76 0 a1.88 1.88 0 1 0 -3.76 0zM1340.62 172.5 a1.88 1.88 0 1 0 3.76 0 a1.88 1.88 0 1 0 -3.76 0z" fill="black"></path>
            <path d="M875.62 397.5 a1.88 1.88 0 1 0 3.76 0 a1.88 1.88 0 1 0 -3.76 0zM980.62 397.5 a1.88 1.88 0 1 0 3.76 0 a1.88 1.88 0 1 0 -3.76 0zM830.62 382.5 a1.88 1.88 0 1 0 3.76 0 a1.88 1.88 0 1 0 -3.76 0zM1280.62 412.5 a1.88 1.88 0 1 0 3.76 0 a1.88 1.88 0 1 0 -3.76 0zM1250.62 412.5 a1.88 1.88 0 1 0 3.76 0 a1.88 1.88 0 1 0 -3.76 0zM830.62 397.5 a1.88 1.88 0 1 0 3.76 0 a1.88 1.88 0 1 0 -3.76 0zM890.62 412.5 a1.88 1.88 0 1 0 3.76 0 a1.88 1.88 0 1 0 -3.76 0zM875.62 367.5 a1.88 1.88 0 1 0 3.76 0 a1.88 1.88 0 1 0 -3.76 0zM1040.62 382.5 a1.88 1.88 0 1 0 3.76 0 a1.88 1.88 0 1 0 -3.76 0z" fill="black"></path>
            <path d="M1415.62 172.5 a1.88 1.88 0 1 0 3.76 0 a1.88 1.88 0 1 0 -3.76 0z" fill="black"></path>
            <path d="M665.62 457.5 a1.88 1.88 0 1 0 3.76 0 a1.88 1.88 0 1 0 -3.76 0zM1175.62 442.5 a1.88 1.88 0 1 0 3.76 0 a1.88 1.88 0 1 0 -3.76 0zM740.62 412.5 a1.88 1.88 0 1 0 3.76 0 a1.88 1.88 0 1 0 -3.76 0zM1340.62 412.5 a1.88 1.88 0 1 0 3.76 0 a1.88 1.88 0 1 0 -3.76 0zM1040.62 442.5 a1.88 1.88 0 1 0 3.76 0 a1.88 1.88 0 1 0 -3.76 0zM1055.62 442.5 a1.88 1.88 0 1 0 3.76 0 a1.88 1.88 0 1 0 -3.76 0zM1100.62 442.5 a1.88 1.88 0 1 0 3.76 0 a1.88 1.88 0 1 0 -3.76 0zM710.62 442.5 a1.88 1.88 0 1 0 3.76 0 a1.88 1.88 0 1 0 -3.76 0zM1280.62 442.5 a1.88 1.88 0 1 0 3.76 0 a1.88 1.88 0 1 0 -3.76 0zM620.62 442.5 a1.88 1.88 0 1 0 3.76 0 a1.88 1.88 0 1 0 -3.76 0zM785.62 412.5 a1.88 1.88 0 1 0 3.76 0 a1.88 1.88 0 1 0 -3.76 0zM1130.62 442.5 a1.88 1.88 0 1 0 3.76 0 a1.88 1.88 0 1 0 -3.76 0zM680.62 442.5 a1.88 1.88 0 1 0 3.76 0 a1.88 1.88 0 1 0 -3.76 0zM695.62 412.5 a1.88 1.88 0 1 0 3.76 0 a1.88 1.88 0 1 0 -3.76 0z" fill="black"></path>
            <path d="M1160.62 127.5 a1.88 1.88 0 1 0 3.76 0 a1.88 1.88 0 1 0 -3.76 0zM1235.62 112.5 a1.88 1.88 0 1 0 3.76 0 a1.88 1.88 0 1 0 -3.76 0zM1190.62 112.5 a1.88 1.88 0 1 0 3.76 0 a1.88 1.88 0 1 0 -3.76 0zM1130.62 97.5 a1.88 1.88 0 1 0 3.76 0 a1.88 1.88 0 1 0 -3.76 0zM1205.62 142.5 a1.88 1.88 0 1 0 3.76 0 a1.88 1.88 0 1 0 -3.76 0zM1175.62 157.5 a1.88 1.88 0 1 0 3.76 0 a1.88 1.88 0 1 0 -3.76 0z" fill="black"></path>
            <path d="M1310.62 442.5 a1.88 1.88 0 1 0 3.76 0 a1.88 1.88 0 1 0 -3.76 0z" fill="black"></path>
            <path d="M1130.62 82.5 a1.88 1.88 0 1 0 3.76 0 a1.88 1.88 0 1 0 -3.76 0zM1400.62 142.5 a1.88 1.88 0 1 0 3.76 0 a1.88 1.88 0 1 0 -3.76 0zM1205.62 97.5 a1.88 1.88 0 1 0 3.76 0 a1.88 1.88 0 1 0 -3.76 0zM1160.62 97.5 a1.88 1.88 0 1 0 3.76 0 a1.88 1.88 0 1 0 -3.76 0zM1340.62 127.5 a1.88 1.88 0 1 0 3.76 0 a1.88 1.88 0 1 0 -3.76 0zM1175.62 97.5 a1.88 1.88 0 1 0 3.76 0 a1.88 1.88 0 1 0 -3.76 0z" fill="black"></path>
            <path d="M800.62 442.5 a1.88 1.88 0 1 0 3.76 0 a1.88 1.88 0 1 0 -3.76 0zM920.62 457.5 a1.88 1.88 0 1 0 3.76 0 a1.88 1.88 0 1 0 -3.76 0zM1055.62 472.5 a1.88 1.88 0 1 0 3.76 0 a1.88 1.88 0 1 0 -3.76 0zM770.62 457.5 a1.88 1.88 0 1 0 3.76 0 a1.88 1.88 0 1 0 -3.76 0zM1295.62 472.5 a1.88 1.88 0 1 0 3.76 0 a1.88 1.88 0 1 0 -3.76 0zM1190.62 472.5 a1.88 1.88 0 1 0 3.76 0 a1.88 1.88 0 1 0 -3.76 0zM860.62 457.5 a1.88 1.88 0 1 0 3.76 0 a1.88 1.88 0 1 0 -3.76 0zM1340.62 472.5 a1.88 1.88 0 1 0 3.76 0 a1.88 1.88 0 1 0 -3.76 0zM1355.62 442.5 a1.88 1.88 0 1 0 3.76 0 a1.88 1.88 0 1 0 -3.76 0zM950.62 472.5 a1.88 1.88 0 1 0 3.76 0 a1.88 1.88 0 1 0 -3.76 0zM860.62 517.5 a1.88 1.88 0 1 0 3.76 0 a1.88 1.88 0 1 0 -3.76 0zM1025.62 502.5 a1.88 1.88 0 1 0 3.76 0 a1.88 1.88 0 1 0 -3.76 0z" fill="black"></path>
            <path d="M920.62 67.5 a1.88 1.88 0 1 0 3.76 0 a1.88 1.88 0 1 0 -3.76 0zM1040.62 97.5 a1.88 1.88 0 1 0 3.76 0 a1.88 1.88 0 1 0 -3.76 0zM1085.62 37.5 a1.88 1.88 0 1 0 3.76 0 a1.88 1.88 0 1 0 -3.76 0zM1100.62 37.5 a1.88 1.88 0 1 0 3.76 0 a1.88 1.88 0 1 0 -3.76 0zM1130.62 37.5 a1.88 1.88 0 1 0 3.76 0 a1.88 1.88 0 1 0 -3.76 0zM1325.62 82.5 a1.88 1.88 0 1 0 3.76 0 a1.88 1.88 0 1 0 -3.76 0zM1190.62 52.5 a1.88 1.88 0 1 0 3.76 0 a1.88 1.88 0 1 0 -3.76 0zM905.62 82.5 a1.88 1.88 0 1 0 3.76 0 a1.88 1.88 0 1 0 -3.76 0zM1280.62 67.5 a1.88 1.88 0 1 0 3.76 0 a1.88 1.88 0 1 0 -3.76 0zM905.62 52.5 a1.88 1.88 0 1 0 3.76 0 a1.88 1.88 0 1 0 -3.76 0z" fill="black"></path>
        </mask>
    </defs>
</svg>