<svg width="1440" height="900" viewBox="0 0 1440 900" fill="none" xmlns="http://www.w3.org/2000/svg">
<path fill-rule="evenodd" clip-rule="evenodd" d="M-1066.53 -663.125L-1067.23 -606.25H-1096.84C-1114.5 -606.25 -1126.44 -604.99 -1126.44 -603.133C-1126.44 -601.273 -1114.48 -600.017 -1096.78 -600.017H-1067.12L-1067.96 -526.001L-1068.79 -451.985L-1098.4 -450.309L-1128 -448.632L-1098.4 -447.192L-1068.79 -445.752L-1067.96 -371.737L-1067.12 -297.721H-1096.78C-1114.48 -297.721 -1126.44 -296.465 -1126.44 -294.604C-1126.44 -292.744 -1114.48 -291.488 -1096.78 -291.488H-1067.12L-1067.96 -217.472L-1068.79 -143.457L-1098.4 -141.78L-1128 -140.103L-1098.4 -138.663L-1068.79 -137.224L-1067.96 -63.2079L-1067.12 10.8077H-1096.78C-1114.48 10.8077 -1126.44 12.0637 -1126.44 13.9242C-1126.44 15.7847 -1114.48 17.0407 -1096.78 17.0407H-1067.12L-1067.96 91.0564L-1068.79 165.072L-1098.4 166.749L-1128 168.425L-1098.4 169.865L-1068.79 171.305L-1067.96 245.321L-1067.12 319.336H-1096.78C-1114.48 319.336 -1126.44 320.593 -1126.44 322.453C-1126.44 324.313 -1114.48 325.569 -1096.78 325.569H-1067.12L-1067.96 399.585L-1068.79 473.601L-1098.4 475.277L-1128 476.954L-1098.4 478.394L-1068.79 479.834L-1067.96 553.849L-1067.12 627.865H-1096.78C-1114.48 627.865 -1126.44 629.121 -1126.44 630.982C-1126.44 632.842 -1114.48 634.098 -1096.78 634.098H-1067.12L-1067.96 708.114L-1068.79 782.13L-1098.4 783.806L-1128 785.483L-1098.4 786.922L-1068.79 788.362L-1067.96 862.378L-1067.12 936.394H-1096.78C-1114.48 936.394 -1126.44 937.65 -1126.44 939.51C-1126.44 941.368 -1114.56 942.627 -1097.02 942.627H-1067.61L-1066.39 954.313L-1065.16 966L-1064.64 954.313L-1064.12 942.627H-987.769H-911.421V953.534C-911.421 959.533 -910.019 964.442 -908.305 964.442C-906.591 964.442 -905.188 959.533 -905.188 953.534V942.627H-830.398H-755.609V953.534C-755.609 959.533 -754.206 964.442 -752.492 964.442C-750.778 964.442 -749.376 959.533 -749.376 953.534V942.627H-674.586H-599.796V953.534C-599.796 961.151 -598.388 964.442 -595.122 964.442C-591.856 964.442 -590.448 961.151 -590.448 953.534V942.627H-515.658H-440.868V953.534C-440.868 959.533 -439.465 964.442 -437.751 964.442C-436.038 964.442 -434.635 959.533 -434.635 953.534V942.627H-359.845H-285.055V953.534C-285.055 959.533 -283.653 964.442 -281.939 964.442C-280.225 964.442 -278.823 959.533 -278.823 953.534V942.627H-202.662H-126.504L-125.279 954.313L-124.058 966L-123.534 954.313L-123.01 942.627H-46.6626H29.6854V953.534C29.6854 959.533 31.0879 964.442 32.8018 964.442C34.5157 964.442 35.918 959.533 35.918 953.534V942.627H110.708H185.498V953.534C185.498 959.533 186.9 964.442 188.614 964.442C190.328 964.442 191.73 959.533 191.73 953.534V942.627H267.891H344.049L345.274 954.313L346.496 966L347.019 954.313L347.543 942.627H423.891H500.239V953.534C500.239 959.533 501.641 964.442 503.355 964.442C505.069 964.442 506.471 959.533 506.471 953.534V942.627H581.261H656.051V953.534C656.051 959.533 657.453 964.442 659.167 964.442C660.881 964.442 662.283 959.533 662.283 953.534V942.627L737.073 942.627H811.863V953.534C811.863 959.533 813.266 964.442 814.979 964.442C816.693 964.442 818.096 959.533 818.096 953.534V942.627H894.444H970.792V953.534C970.792 959.533 972.194 964.442 973.908 964.442C975.622 964.442 977.024 959.533 977.024 953.534V942.627H1051.81H1126.6V953.534C1126.6 959.533 1128.01 964.442 1129.72 964.442C1131.43 964.442 1132.84 959.533 1132.84 953.534V942.627H1207.63H1282.42V953.534C1282.42 959.533 1283.82 964.442 1285.53 964.442C1287.25 964.442 1288.65 959.533 1288.65 953.534V942.627H1365H1441.34V953.534C1441.34 959.533 1442.75 964.442 1444.46 964.442C1446.18 964.442 1447.58 959.533 1447.58 953.534V942.627H1522.37H1597.16V953.534C1597.16 959.533 1598.56 964.442 1600.27 964.442C1601.99 964.442 1603.39 959.533 1603.39 953.534V942.627H1679.55H1755.71L1756.93 954.313L1758.16 966L1758.68 954.313L1759.2 942.627H1812.18C1845.42 942.627 1865.15 941.464 1865.15 939.51C1865.15 937.556 1845.4 936.394 1812.12 936.394H1759.09L1759.93 862.378L1760.76 788.362L1813.74 786.689L1866.71 785.015L1812.96 784.351L1759.2 783.688V708.893V634.098H1812.18C1845.42 634.098 1865.15 632.936 1865.15 630.982C1865.15 629.028 1845.4 627.865 1812.12 627.865H1759.09L1759.93 553.849L1760.76 479.834L1813.74 478.16L1866.71 476.487L1812.96 475.823L1759.2 475.159V400.364V325.569H1812.18C1845.42 325.569 1865.15 324.407 1865.15 322.453C1865.15 320.499 1845.4 319.336 1812.12 319.336H1759.09L1759.93 245.321L1760.76 171.305L1813.74 169.631L1866.71 167.958L1812.96 167.294L1759.2 166.63V91.8354V17.0407H1812.18C1845.42 17.0407 1865.15 15.8782 1865.15 13.9242C1865.15 11.9702 1845.4 10.8077 1812.12 10.8077H1759.09L1759.93 -63.2079L1760.76 -137.224L1813.74 -138.897L1866.71 -140.571L1812.96 -141.235L1759.2 -141.898V-216.693V-291.488H1812.18C1845.42 -291.488 1865.15 -292.65 1865.15 -294.604C1865.15 -296.558 1845.4 -297.721 1812.12 -297.721H1759.09L1759.93 -371.737L1760.76 -445.752L1813.74 -447.426L1866.71 -449.099L1812.96 -449.763L1759.2 -450.427V-525.222V-600.017H1812.18C1845.42 -600.017 1865.15 -601.179 1865.15 -603.133C1865.15 -605.087 1845.44 -606.25 1812.25 -606.25H1759.34L1758.42 -663.125L1757.49 -720L1756.79 -663.125L1756.09 -606.25H1679.74H1603.39V-662.346C1603.39 -697.664 1602.24 -718.442 1600.27 -718.442C1598.31 -718.442 1597.16 -697.664 1597.16 -662.346V-606.25L1522.37 -606.25H1447.58V-662.346C1447.58 -697.664 1446.42 -718.442 1444.46 -718.442C1442.5 -718.442 1441.34 -697.664 1441.34 -662.346V-606.25H1365H1288.65V-662.346C1288.65 -697.664 1287.5 -718.442 1285.53 -718.442C1283.57 -718.442 1282.42 -697.664 1282.42 -662.346V-606.25H1207.63H1132.84V-662.346C1132.84 -697.664 1131.68 -718.442 1129.72 -718.442C1127.76 -718.442 1126.6 -697.664 1126.6 -662.346V-606.25H1051.81H977.024V-662.346C977.024 -697.664 975.872 -718.442 973.908 -718.442C971.945 -718.442 970.792 -697.664 970.792 -662.346V-606.25H894.444H818.096V-662.346C818.096 -697.664 816.943 -718.442 814.979 -718.442C813.016 -718.442 811.863 -697.664 811.863 -662.346V-606.25H737.073H662.283V-662.346C662.283 -697.664 661.131 -718.442 659.167 -718.442C657.204 -718.442 656.051 -697.664 656.051 -662.346V-606.25H581.261H506.471V-662.346C506.471 -697.664 505.318 -718.442 503.355 -718.442C501.392 -718.442 500.239 -697.664 500.239 -662.346V-606.25H423.962H347.683L346.76 -663.125L345.835 -720L345.131 -663.125L344.426 -606.25H268.078H191.73V-662.346C191.73 -697.664 190.577 -718.442 188.614 -718.442C186.651 -718.442 185.498 -697.664 185.498 -662.346V-606.25H110.708H35.918V-662.346C35.918 -697.664 34.765 -718.442 32.8018 -718.442C30.8386 -718.442 29.6854 -697.664 29.6854 -662.346V-606.25H-46.5909L-122.87 -606.25L-123.793 -663.125L-124.718 -720L-125.422 -663.125L-126.127 -606.25H-202.475H-278.823V-662.346C-278.823 -697.664 -279.976 -718.442 -281.939 -718.442C-283.902 -718.442 -285.055 -697.664 -285.055 -662.346V-606.25H-359.845H-434.635V-662.346C-434.635 -697.664 -435.788 -718.442 -437.751 -718.442C-439.715 -718.442 -440.868 -697.664 -440.868 -662.346V-606.25H-515.658H-590.448V-662.346C-590.448 -710.13 -591.139 -718.442 -595.122 -718.442C-599.104 -718.442 -599.796 -710.13 -599.796 -662.346V-606.25H-674.586H-749.376V-662.346C-749.376 -697.664 -750.529 -718.442 -752.492 -718.442C-754.456 -718.442 -755.609 -697.664 -755.609 -662.346V-606.25H-830.398H-905.188V-662.346C-905.188 -697.664 -906.341 -718.442 -908.305 -718.442C-910.268 -718.442 -911.421 -697.664 -911.421 -662.346V-606.25H-987.697H-1063.98L-1064.9 -663.125L-1065.82 -720L-1066.53 -663.125ZM-911.421 -525.222V-450.427H-987.769H-1064.12V-525.222V-600.017H-987.769H-911.421V-525.222ZM-755.609 -525.222V-450.427H-830.398H-905.188V-525.222V-600.017H-830.398H-755.609V-525.222ZM-599.796 -525.222V-450.427L-674.586 -450.427H-749.376V-525.222V-600.017H-674.586H-599.796V-525.222ZM-440.868 -525.222V-450.427H-515.658H-590.448V-525.222V-600.017H-515.658H-440.868V-525.222ZM-285.055 -525.222V-450.427H-359.845H-434.635V-525.222V-600.017H-359.845H-285.055V-525.222ZM-126.127 -525.222V-450.427H-202.475H-278.823V-525.222V-600.017H-202.475H-126.127V-525.222ZM29.6854 -525.166V-450.315L-45.8835 -451.15L-121.453 -451.985L-122.288 -526.001L-123.123 -600.017L-46.7186 -600.017H29.6854V-525.166ZM185.498 -525.222V-450.427H110.708H35.918V-525.222V-600.017H110.708H185.498V-525.222ZM344.426 -525.222V-450.427H268.078L191.73 -450.427V-525.222V-600.017H268.078H344.426V-525.222ZM500.239 -525.222V-450.427H423.891H347.543V-525.222V-600.017H423.891H500.239V-525.222ZM656.051 -525.222V-450.427H581.261H506.471V-525.222V-600.017H581.261H656.051V-525.222ZM811.863 -525.222V-450.427H737.073H662.283V-525.222V-600.017H737.073H811.863V-525.222ZM970.792 -525.222V-450.427H894.444H818.096V-525.222V-600.017H894.444H970.792V-525.222ZM1126.6 -525.222V-450.427H1051.81H977.024V-525.222V-600.017H1051.81H1126.6V-525.222ZM1282.42 -525.222V-450.427H1207.63L1132.84 -450.427V-525.222V-600.017H1207.63H1282.42V-525.222ZM1441.34 -525.166V-450.315L1365.78 -451.15L1290.21 -451.985L1289.37 -526.001L1288.54 -600.017H1364.94H1441.34V-525.166ZM1597.16 -525.222V-450.427H1522.37H1447.58V-525.222V-600.017H1522.37L1597.16 -600.017V-525.222ZM1755.36 -526.001L1754.53 -451.985L1678.96 -451.15L1603.39 -450.315V-525.166V-600.017H1679.79H1756.2L1755.36 -526.001ZM-911.421 -372.516V-297.721H-987.769H-1064.12V-370.437C-1064.12 -457.657 -1074.67 -447.311 -985.69 -447.311H-911.421V-372.516ZM-755.609 -372.516V-297.721H-830.398H-905.188V-372.516V-447.311H-830.398H-755.609V-372.516ZM-599.796 -372.516V-297.721L-674.586 -297.721H-749.376V-372.516V-447.311H-674.586L-599.796 -447.311V-372.516ZM-440.868 -372.516V-297.721H-515.658H-590.448V-372.516V-447.311H-515.658H-440.868V-372.516ZM-285.055 -372.516V-297.721H-359.845H-434.635V-372.516V-447.311H-359.845H-285.055V-372.516ZM-126.85 -371.737L-126.015 -297.721H-202.419H-278.823V-372.572V-447.423L-203.254 -446.588L-127.685 -445.752L-126.85 -371.737ZM28.9626 -371.737L29.7976 -297.721H-46.6063H-123.01V-370.437C-123.01 -457.695 -133.325 -447.585 -45.3102 -446.588L28.1274 -445.752L28.9626 -371.737ZM185.498 -372.516V-297.721H110.708H35.918V-372.516V-447.311H110.708H185.498V-372.516ZM343.703 -371.737L344.539 -297.721H268.134L191.73 -297.721V-372.572V-447.423L267.299 -446.588L342.868 -445.752L343.703 -371.737ZM499.516 -371.737L500.351 -297.721H423.947H347.543V-372.572V-447.423L423.112 -446.588L498.681 -445.752L499.516 -371.737ZM656.051 -372.516V-297.721H581.261H506.471V-372.516V-447.311H581.261H656.051V-372.516ZM811.863 -372.516V-297.721H737.073H662.283V-372.516V-447.311H737.073H811.863V-372.516ZM970.792 -372.516V-297.721H894.444H818.096V-370.437C818.096 -457.657 807.541 -447.311 896.522 -447.311H970.792V-372.516ZM1126.6 -372.516V-297.721H1051.81H977.024V-372.516V-447.311H1051.81H1126.6V-372.516ZM1282.42 -372.516V-297.721H1207.63L1132.84 -297.721V-372.516V-447.311L1207.63 -447.311H1282.42V-372.516ZM1441.34 -372.516V-297.721H1365H1288.65V-370.437C1288.65 -457.657 1278.09 -447.311 1367.08 -447.311H1441.34V-372.516ZM1597.16 -372.516V-297.721H1522.37H1447.58V-372.516V-447.311H1522.37H1597.16V-372.516ZM1755.36 -371.737L1756.2 -297.721H1679.79H1603.39V-372.572V-447.423L1678.96 -446.588L1754.53 -445.752L1755.36 -371.737ZM-911.421 -216.693V-141.898H-987.769H-1064.12V-216.693V-291.488H-987.769H-911.421V-216.693ZM-755.609 -216.693V-141.898H-830.398H-905.188V-216.693V-291.488H-830.398H-755.609V-216.693ZM-599.796 -216.693V-141.898H-674.586H-749.376V-216.693V-291.488H-674.586L-599.796 -291.488V-216.693ZM-440.868 -216.693V-141.898H-515.658H-590.448V-216.693V-291.488H-515.658H-440.868V-216.693ZM-285.055 -216.693V-141.898H-359.845H-434.635V-216.693V-291.488H-359.845H-285.055V-216.693ZM-126.127 -216.693V-141.898L-202.475 -141.898H-278.823V-216.693V-291.488H-202.475H-126.127V-216.693ZM29.6854 -216.637V-141.786L-45.8835 -142.621L-121.453 -143.457L-122.288 -217.472L-123.123 -291.488H-46.7186H29.6854V-216.637ZM185.498 -216.693V-141.898H110.708H35.918V-216.693V-291.488H110.708H185.498V-216.693ZM344.426 -216.693V-141.898H268.078H191.73V-216.693V-291.488L268.078 -291.488H344.426V-216.693ZM500.239 -216.693V-141.898H423.891H347.543V-216.693V-291.488H423.891H500.239V-216.693ZM656.051 -216.693V-141.898H581.261H506.471V-216.693V-291.488H581.261H656.051V-216.693ZM811.863 -216.693V-141.898H737.073H662.283V-216.693V-291.488H737.073H811.863V-216.693ZM970.792 -216.693V-141.898H894.444H818.096V-216.693V-291.488H894.444H970.792V-216.693ZM1126.6 -216.693V-141.898H1051.81H977.024V-216.693V-291.488H1051.81H1126.6V-216.693ZM1282.42 -216.693V-141.898H1207.63H1132.84V-216.693V-291.488L1207.63 -291.488H1282.42V-216.693ZM1441.34 -216.637V-141.786L1365.78 -142.621L1290.21 -143.457L1289.37 -217.472L1288.54 -291.488H1364.94H1441.34V-216.637ZM1597.16 -216.693V-141.898H1522.37H1447.58V-216.693V-291.488H1522.37H1597.16V-216.693ZM1755.36 -217.472L1754.53 -143.457L1678.96 -142.621L1603.39 -141.786V-216.637V-291.488H1679.79H1756.2L1755.36 -217.472ZM-911.421 -63.9871V10.8077H-987.769H-1064.12V-61.9084C-1064.12 -149.128 -1074.67 -138.782 -985.69 -138.782H-911.421V-63.9871ZM-755.609 -63.9871V10.8077H-830.398H-905.188V-63.9871V-138.782H-830.398H-755.609V-63.9871ZM-599.796 -63.9871V10.8077H-674.586H-749.376V-63.9871V-138.782H-674.586H-599.796V-63.9871ZM-440.868 -63.9871V10.8077H-515.658H-590.448V-63.9871V-138.782H-515.658H-440.868V-63.9871ZM-285.055 -63.9871V10.8077H-359.845H-434.635V-63.9871V-138.782H-359.845H-285.055V-63.9871ZM-126.85 -63.2079L-126.015 10.8077L-202.419 10.8077H-278.823V-64.0432V-138.894L-203.254 -138.059L-127.685 -137.224L-126.85 -63.2079ZM28.9626 -63.2079L29.7976 10.8077H-46.6063H-123.01V-61.9084C-123.01 -149.166 -133.325 -139.056 -45.3102 -138.059L28.1274 -137.224L28.9626 -63.2079ZM185.498 -63.9871V10.8077H110.708H35.918V-63.9871V-138.782H110.708H185.498V-63.9871ZM343.703 -63.2079L344.539 10.8077H268.134H191.73V-64.0432V-138.894L267.299 -138.059L342.868 -137.224L343.703 -63.2079ZM499.516 -63.2079L500.351 10.8077H423.947H347.543V-64.0432V-138.894L423.112 -138.059L498.681 -137.224L499.516 -63.2079ZM656.051 -63.9871V10.8077H581.261H506.471V-63.9871V-138.782H581.261H656.051V-63.9871ZM811.863 -63.9871V10.8077H737.073H662.283V-63.9871V-138.782H737.073H811.863V-63.9871ZM970.792 -63.9871V10.8077H894.444H818.096V-61.9084C818.096 -149.128 807.541 -138.782 896.522 -138.782H970.792V-63.9871ZM1126.6 -63.9871V10.8077H1051.81H977.024V-63.9871V-138.782H1051.81H1126.6V-63.9871ZM1282.42 -63.9871V10.8077H1207.63H1132.84V-63.9871V-138.782H1207.63H1282.42V-63.9871ZM1441.34 -63.9871V10.8077H1365H1288.65V-61.9084C1288.65 -149.128 1278.09 -138.782 1367.08 -138.782H1441.34V-63.9871ZM1597.16 -63.9871V10.8077H1522.37H1447.58V-63.9871V-138.782H1522.37H1597.16V-63.9871ZM1755.36 -63.2079L1756.2 10.8077H1679.79L1603.39 10.8077V-64.0432V-138.894L1678.96 -138.059L1754.53 -137.224L1755.36 -63.2079ZM-911.421 91.8354V166.63H-987.769H-1064.12V91.8354V17.0407H-987.769H-911.421V91.8354ZM-755.609 91.8354V166.63H-830.398H-905.188V91.8354V17.0407H-830.398H-755.609V91.8354ZM-599.796 91.8354V166.63H-674.586H-749.376V91.8354V17.0407H-674.586H-599.796V91.8354ZM-440.868 91.8354V166.63H-515.658H-590.448V91.8354V17.0407H-515.658H-440.868V91.8354ZM-285.055 91.8354V166.63H-359.845H-434.635V91.8354V17.0407H-359.845H-285.055V91.8354ZM-126.127 91.8354V166.63L-202.475 166.63H-278.823V91.8354V17.0407H-202.475L-126.127 17.0407V91.8354ZM29.6854 91.8916V166.743L-45.8835 165.907L-121.453 165.072L-122.288 91.0564L-123.123 17.0407H-46.7186H29.6854V91.8916ZM185.498 91.8354V166.63H110.708H35.918V91.8354V17.0407H110.708H185.498V91.8354ZM344.426 91.8354V166.63H268.078H191.73V91.8354V17.0407H268.078H344.426V91.8354ZM500.239 91.8354V166.63H423.891H347.543V91.8354V17.0407H423.891H500.239V91.8354ZM656.051 91.8354V166.63H581.261H506.471V91.8354V17.0407H581.261H656.051V91.8354ZM811.863 91.8354V166.63H737.073H662.283V91.8354V17.0407H737.073H811.863V91.8354ZM970.792 91.8354V166.63H894.444H818.096V91.8354V17.0407H894.444H970.792V91.8354ZM1126.6 91.8354V166.63H1051.81H977.024V91.8354V17.0407H1051.81H1126.6V91.8354ZM1282.42 91.8354V166.63H1207.63H1132.84V91.8354V17.0407H1207.63H1282.42V91.8354ZM1441.34 91.8916V166.743L1365.78 165.907L1290.21 165.072L1289.37 91.0564L1288.54 17.0407H1364.94H1441.34V91.8916ZM1597.16 91.8354V166.63H1522.37H1447.58V91.8354V17.0407H1522.37H1597.16V91.8354ZM1755.36 91.0564L1754.53 165.072L1678.96 165.907L1603.39 166.743V91.8916V17.0407L1679.79 17.0407H1756.2L1755.36 91.0564ZM-911.421 244.542V319.336H-987.769H-1064.12V246.62C-1064.12 159.4 -1074.67 169.747 -985.69 169.747H-911.421V244.542ZM-755.609 244.542V319.336H-830.398H-905.188V244.542V169.747H-830.398H-755.609V244.542ZM-599.796 244.542V319.336H-674.586H-749.376V244.542V169.747H-674.586H-599.796L-599.796 244.542ZM-440.868 244.542V319.336H-515.658H-590.448V244.542L-590.448 169.747H-515.658H-440.868L-440.868 244.542ZM-285.055 244.542V319.336H-359.845H-434.635V244.542L-434.635 169.747H-359.845H-285.055L-285.055 244.542ZM-126.85 245.321L-126.015 319.336H-202.419H-278.823V244.485L-278.823 169.634L-203.254 170.47L-127.685 171.305L-126.85 245.321ZM28.9626 245.321L29.7976 319.336H-46.6063H-123.01V246.62C-123.01 159.363 -133.325 169.473 -45.3102 170.47L28.1274 171.305L28.9626 245.321ZM185.498 244.542V319.336H110.708H35.918V244.542V169.747H110.708H185.498V244.542ZM343.703 245.321L344.539 319.336H268.134H191.73V244.485V169.634L267.299 170.47L342.868 171.305L343.703 245.321ZM499.516 245.321L500.351 319.336H423.947H347.543V244.485V169.634L423.112 170.47L498.681 171.305L499.516 245.321ZM656.051 244.542V319.336H581.261H506.471V244.542V169.747H581.261H656.051V244.542ZM811.863 244.542V319.336H737.073L662.283 319.336V244.542V169.747H737.073H811.863V244.542ZM970.792 244.542V319.336H894.444H818.096V246.62C818.096 159.4 807.541 169.747 896.522 169.747H970.792V244.542ZM1126.6 244.542V319.336H1051.81H977.024V244.542V169.747H1051.81H1126.6V244.542ZM1282.42 244.542V319.336H1207.63H1132.84V244.542V169.747H1207.63H1282.42V244.542ZM1441.34 244.542V319.336H1365H1288.65V246.62C1288.65 159.4 1278.09 169.747 1367.08 169.747H1441.34V244.542ZM1597.16 244.542V319.336H1522.37H1447.58V244.542V169.747H1522.37H1597.16V244.542ZM1755.36 245.321L1756.2 319.336H1679.79H1603.39V244.485V169.634L1678.96 170.47L1754.53 171.305L1755.36 245.321ZM-911.421 400.364L-911.421 475.159H-987.769H-1064.12V400.364V325.569H-987.769H-911.421V400.364ZM-755.609 400.364V475.159H-830.398H-905.188L-905.188 400.364V325.569H-830.398H-755.609V400.364ZM-599.796 400.364V475.159H-674.586H-749.376V400.364V325.569H-674.586H-599.796V400.364ZM-440.868 400.364V475.159H-515.658H-590.448V400.364V325.569H-515.658H-440.868V400.364ZM-285.055 400.364V475.159H-359.845H-434.635V400.364V325.569H-359.845H-285.055V400.364ZM-126.127 400.364V475.159H-202.475H-278.823V400.364V325.569H-202.475H-126.127V400.364ZM29.6854 400.42V475.271L-45.8835 474.436L-121.453 473.601L-122.288 399.585L-123.123 325.569H-46.7186H29.6854V400.42ZM185.498 400.364V475.159H110.708H35.918V400.364V325.569H110.708H185.498V400.364ZM344.426 400.364V475.159H268.078H191.73V400.364V325.569H268.078H344.426V400.364ZM500.239 400.364V475.159H423.891H347.543V400.364V325.569H423.891H500.239V400.364ZM656.051 400.364V475.159H581.261H506.471V400.364V325.569H581.261H656.051V400.364ZM811.863 400.364V475.159H737.073L662.283 475.159V400.364V325.569L737.073 325.569H811.863V400.364ZM970.792 400.364V475.159H894.444H818.096V400.364V325.569H894.444H970.792V400.364ZM1126.6 400.364V475.159H1051.81H977.024V400.364V325.569H1051.81H1126.6V400.364ZM1282.42 400.364V475.159H1207.63H1132.84V400.364V325.569H1207.63H1282.42V400.364ZM1441.34 400.42V475.271L1365.78 474.436L1290.21 473.601L1289.37 399.585L1288.54 325.569H1364.94H1441.34V400.42ZM1597.16 400.364V475.159H1522.37H1447.58V400.364V325.569H1522.37H1597.16V400.364ZM1755.36 399.585L1754.53 473.601L1678.96 474.436L1603.39 475.271V400.42V325.569H1679.79H1756.2L1755.36 399.585ZM-911.421 553.07V627.865H-987.769H-1064.12V555.149C-1064.12 467.929 -1074.67 478.276 -985.69 478.276H-911.421V553.07ZM-755.609 553.07V627.865H-830.398H-905.188V553.07V478.276H-830.398H-755.609V553.07ZM-599.796 553.07V627.865H-674.586H-749.376V553.07V478.276H-674.586H-599.796V553.07ZM-440.868 553.07V627.865H-515.658H-590.448V553.07V478.276H-515.658H-440.868V553.07ZM-285.055 553.07V627.865H-359.845H-434.635V553.07V478.276H-359.845H-285.055V553.07ZM-126.85 553.849L-126.015 627.865H-202.419H-278.823V553.014V478.163L-203.254 478.998L-127.685 479.834L-126.85 553.849ZM28.9626 553.849L29.7976 627.865H-46.6063H-123.01V555.149C-123.01 467.891 -133.325 478.001 -45.3102 478.998L28.1274 479.834L28.9626 553.849ZM185.498 553.07V627.865H110.708H35.918V553.07V478.276H110.708H185.498V553.07ZM343.703 553.849L344.539 627.865H268.134H191.73V553.014V478.163L267.299 478.998L342.868 479.834L343.703 553.849ZM499.516 553.849L500.351 627.865H423.947H347.543V553.014V478.163L423.112 478.998L498.681 479.834L499.516 553.849ZM656.051 553.07V627.865H581.261H506.471V553.07V478.276H581.261H656.051V553.07ZM811.863 553.07V627.865H737.073L662.283 627.865V553.07V478.276L737.073 478.276H811.863V553.07ZM970.792 553.07V627.865H894.444H818.096V555.149C818.096 467.929 807.541 478.276 896.522 478.276H970.792V553.07ZM1126.6 553.07V627.865H1051.81H977.024V553.07V478.276H1051.81H1126.6V553.07ZM1282.42 553.07V627.865H1207.63H1132.84V553.07V478.276H1207.63H1282.42V553.07ZM1441.34 553.07V627.865H1365H1288.65V555.149C1288.65 467.929 1278.09 478.276 1367.08 478.276H1441.34V553.07ZM1597.16 553.07V627.865H1522.37H1447.58V553.07V478.276H1522.37H1597.16V553.07ZM1755.36 553.849L1756.2 627.865H1679.79H1603.39V553.014V478.163L1678.96 478.998L1754.53 479.834L1755.36 553.849ZM-911.421 708.893V783.688H-987.769H-1064.12V708.893V634.098H-987.769H-911.421V708.893ZM-755.609 708.893V783.688H-830.398H-905.188V708.893V634.098H-830.398H-755.609L-755.609 708.893ZM-599.796 708.893V783.688H-674.586H-749.376V708.893L-749.376 634.098H-674.586H-599.796V708.893ZM-440.868 708.893V783.688H-515.658H-590.448V708.893V634.098H-515.658H-440.868V708.893ZM-285.055 708.893V783.688H-359.845H-434.635V708.893V634.098H-359.845H-285.055V708.893ZM-126.127 708.893V783.688H-202.475H-278.823V708.893V634.098H-202.475H-126.127V708.893ZM29.6854 708.949V783.8L-45.8835 782.965L-121.453 782.13L-122.288 708.114L-123.123 634.098H-46.7186H29.6854V708.949ZM185.498 708.893V783.688H110.708H35.918V708.893V634.098H110.708H185.498V708.893ZM344.426 708.893V783.688H268.078H191.73V708.893V634.098H268.078H344.426V708.893ZM500.239 708.893V783.688H423.891H347.543V708.893V634.098H423.891H500.239V708.893ZM656.051 708.893V783.688H581.261H506.471V708.893V634.098H581.261H656.051V708.893ZM811.863 708.893V783.688H737.073L662.283 783.688V708.893V634.098L737.073 634.098H811.863V708.893ZM970.792 708.893V783.688H894.444H818.096V708.893V634.098H894.444H970.792V708.893ZM1126.6 708.893V783.688H1051.81H977.024V708.893V634.098H1051.81H1126.6V708.893ZM1282.42 708.893V783.688H1207.63H1132.84V708.893V634.098H1207.63H1282.42V708.893ZM1441.34 708.949V783.8L1365.78 782.965L1290.21 782.13L1289.37 708.114L1288.54 634.098H1364.94H1441.34V708.949ZM1597.16 708.893V783.688H1522.37H1447.58V708.893V634.098H1522.37H1597.16V708.893ZM1755.36 708.114L1754.53 782.13L1678.96 782.965L1603.39 783.8V708.949V634.098H1679.79H1756.2L1755.36 708.114ZM-911.421 861.599V936.394H-987.769H-1064.12V863.677C-1064.12 776.457 -1074.67 786.804 -985.69 786.804H-911.421V861.599ZM-755.609 861.599V936.394H-830.398H-905.188V861.599V786.804H-830.398H-755.609V861.599ZM-599.796 861.599V936.394H-674.586H-749.376V861.599V786.804H-674.586H-599.796V861.599ZM-440.868 861.599V936.394H-515.658H-590.448V861.599V786.804H-515.658H-440.868V861.599ZM-285.055 861.599V936.394H-359.845H-434.635V861.599V786.804H-359.845H-285.055V861.599ZM-126.85 862.378L-126.015 936.394H-202.419H-278.823V861.543V786.692L-203.254 787.527L-127.685 788.362L-126.85 862.378ZM28.9626 862.378L29.7976 936.394H-46.6063H-123.01V863.677C-123.01 776.42 -133.325 786.53 -45.3102 787.527L28.1274 788.362L28.9626 862.378ZM185.498 861.599V936.394H110.708H35.918V861.599V786.804H110.708H185.498V861.599ZM343.703 862.378L344.539 936.394H268.134H191.73V861.543V786.692L267.299 787.527L342.868 788.362L343.703 862.378ZM499.516 862.378L500.351 936.394H423.947H347.543V861.543V786.692L423.112 787.527L498.681 788.362L499.516 862.378ZM656.051 861.599V936.394H581.261H506.471V861.599V786.804H581.261H656.051V861.599ZM811.863 861.599V936.394H737.073L662.283 936.394V861.599V786.804L737.073 786.804H811.863V861.599ZM970.792 861.599V936.394H894.444H818.096V863.677C818.096 776.457 807.541 786.804 896.522 786.804H970.792V861.599ZM1126.6 861.599V936.394H1051.81H977.024V861.599V786.804H1051.81H1126.6V861.599ZM1282.42 861.599V936.394H1207.63H1132.84V861.599V786.804H1207.63H1282.42V861.599ZM1441.34 861.599V936.394H1365H1288.65V863.677C1288.65 776.457 1278.09 786.804 1367.08 786.804H1441.34V861.599ZM1597.16 861.599V936.394H1522.37H1447.58V861.599V786.804H1522.37H1597.16V861.599ZM1755.36 862.378L1756.2 936.394H1679.79H1603.39V861.543V786.692L1678.96 787.527L1754.53 788.362L1755.36 862.378Z" fill="#080F00"/>
</svg>
