<svg xmlns="http://www.w3.org/2000/svg" version="1.1" xmlns:xlink="http://www.w3.org/1999/xlink" xmlns:svgjs="http://svgjs.dev/svgjs" width="1440" height="720" preserveAspectRatio="none" viewBox="0 0 1440 720">
    <g mask="url(&quot;#SvgjsMask1070&quot;)" fill="none">
        <rect width="1440" height="720" x="0" y="0" fill="rgba(255, 227, 196, 1)"></rect>
        <path d="M0 16.8C1.01 5.55 4.94 1.05 16.15 0C94.94 -7.35 98.07 0 180 0C270 0 270 0 360 0C450 0 450 0 540 0C630 0 630 0 720 0C810 0 810 0 900 0C960.65 0 967.2 -16.56 1021.3 0C1057.2 10.99 1049.53 55.1 1080 55.1C1113.49 55.1 1109.26 12.23 1149.23 0C1199.26 -15.32 1204.61 0 1260 0C1350 0 1395 -45 1440 0C1485 45 1440 90 1440 180C1440 238.69 1459.14 247.14 1440 297.39C1424.86 337.14 1371.43 324.51 1371.43 360C1371.43 407.25 1418.89 407.44 1440 462.86C1453.17 497.44 1440 501.43 1440 540C1440 630 1485 675 1440 720C1395 765 1350 720 1260 720C1170 720 1170 720 1080 720C990 720 990 720 900 720C810 720 810 720 720 720C630 720 630 720 540 720C450 720 450 720 360 720C285.75 720 280.31 732.68 211.5 720C190.31 716.1 201.14 686.84 180 686.84C95.39 686.84 45.38 757.02 0 720C-44.62 683.6 0 630 0 540C0 450 0 450 0 360C0 270 0 270 0 180C0 98.4 -7.07 95.55 0 16.8" stroke="rgba(228, 205, 177, 1)" stroke-width="2"></path>
        <path d="M360 174.93C324.37 174.93 288 158.72 288 180C288 221.26 337.1 300 360 300C379.76 300 373.33 235.93 373.33 180C373.33 173.39 367.04 174.93 360 174.93" stroke="rgba(228, 205, 177, 1)" stroke-width="2"></path>
        <path d="M720 92.09C669.53 96.05 637.83 140.24 637.83 180C637.83 213.27 681.01 206.41 720 238.15C791.57 296.41 792.7 296.01 858.95 360C882.7 382.94 881.29 412 900 412C917.01 412 928.02 389.04 930.39 360C937.49 273.04 932.11 266.82 918.95 180C916.91 166.54 912.64 165.01 900 159.43C813.16 121.06 800.61 85.77 720 92.09" stroke="rgba(228, 205, 177, 1)" stroke-width="2"></path>
        <path d="M0 76.8C18.76 31.08 28.77 19.24 73.85 0C118.77 -19.16 126.93 0 180 0C270 0 270 0 360 0C432 0 504 -24.63 504 0C504 31.15 441.42 80.95 360 111.55C279.42 141.83 262.09 98.44 180 121.76C141.63 132.66 119.08 148.26 119.08 180C119.08 218.63 146.67 223.67 180 262.5C223.93 313.67 231.94 307.14 273.6 360C321.94 421.35 308.84 433.37 360 490.91C388.86 523.37 394.96 518.75 433.64 540C484.96 568.19 489 589.79 540 589.79C577.63 589.79 610.91 571.54 610.91 540C610.91 493.47 575.45 486.82 540 433.64C515.45 396.82 490.91 400.8 490.91 360C490.91 273.98 487.5 192.06 540 180C602.05 165.75 631.89 241.3 720 307.38C751.89 331.3 753.74 330.14 780 360C843.74 432.45 845.31 512 900 512C949.72 512 955.47 440.62 988.83 360C1024.16 274.62 1002.02 262.62 1037.37 180C1047.6 156.09 1055.97 146.94 1080 146.94C1124.93 146.94 1143.09 145.46 1175.29 180C1233.09 241.99 1220.02 259.14 1260 340C1264.52 349.14 1258.84 351.41 1264.29 360C1322.25 451.41 1332.46 446.21 1386.82 540C1420.31 597.79 1421.32 599.94 1440 663.16C1447.91 689.94 1452 703.58 1440 720C1431.23 732 1417.44 727.44 1398.46 720C1327.44 692.15 1330.07 649.41 1260 649.41C1182.58 649.41 1182.65 688.95 1103.48 720C1092.65 724.25 1091.74 720 1080 720C1067.72 720 1065.13 727.08 1055.45 720C975.13 661.31 972.64 588.46 900 588.46C837.91 588.46 851.26 672.31 786 720C761.26 738.08 753 720 720 720C630 720 630 720 540 720C450 720 450 720 360 720C313.88 720 305.55 739.4 267.75 720C215.55 693.21 228.25 668.77 180 627.63C122.71 578.77 91.98 600.57 56.67 540C13.98 466.76 48.52 444.51 24 360C20.18 346.85 1.77 357.95 0 344.68C-10.23 267.95 0 262.34 0 180C0 128.4 -18.17 121.08 0 76.8" stroke="rgba(228, 205, 177, 1)" stroke-width="2"></path>
        <path d="M900 30.86C845.36 30.86 780 7.84 780 0C780 -7.59 840 0 900 0C911.74 0 923.48 -5.82 923.48 0C923.48 9.61 917.1 30.86 900 30.86" stroke="rgba(228, 205, 177, 1)" stroke-width="2"></path>
        <path d="M1370.77 180C1305.28 105.74 1245.2 48.89 1264 0C1279.81 -41.11 1396.49 -44.49 1440 0C1484.49 45.51 1440 90 1440 180C1440 189.78 1447.4 199.57 1440 199.57C1412.79 199.57 1393.28 205.53 1370.77 180" stroke="rgba(228, 205, 177, 1)" stroke-width="2"></path>
        <path d="M0 136.8C15.06 136.8 49.85 155.51 49.85 180C49.85 211.58 13.77 248.94 0 248.94C-11.16 248.94 0 214.47 0 180C0 158.4 -9.86 136.8 0 136.8" stroke="rgba(228, 205, 177, 1)" stroke-width="2"></path>
        <path d="M180 55.59C146.82 48.59 131.54 16.77 131.54 0C131.54 -11.02 155.77 0 180 0C270 0 270 0 360 0C391.09 0 422.18 -10.63 422.18 0C422.18 13.45 396.8 39.72 360 48.17C275.71 67.52 261.05 72.68 180 55.59" stroke="rgba(228, 205, 177, 1)" stroke-width="2"></path>
        <path d="M1440 87.69C1418.36 87.69 1364 26.49 1364 0C1364 -17.35 1422.36 -20.36 1440 0C1460.36 23.49 1456.36 87.69 1440 87.69" stroke="rgba(228, 205, 177, 1)" stroke-width="2"></path>
        <path d="M174 360C174.74 356.58 177.23 356.25 180 356.25C182.03 356.25 182.6 357.61 183.6 360C221.17 449.48 258.41 466.76 257.14 540C256.61 570.97 216.68 568.42 180 568.42C158.11 568.42 140.63 562.02 140 540C137.63 457.81 154.74 448.46 174 360" stroke="rgba(228, 205, 177, 1)" stroke-width="2"></path>
        <path d="M1047.27 360C1053.8 315.97 1057.36 276 1080 276C1106.88 276 1113.16 318 1146.32 360C1203.16 432 1204.15 431.27 1260 504C1273.26 521.27 1284.55 523.61 1284.55 540C1284.55 552.2 1275.58 558.64 1260 561.18C1173.31 575.31 1165.27 581.57 1080 573.33C1055.71 570.98 1044.5 563.68 1040.87 540C1028.14 457.02 1034.23 447.97 1047.27 360" stroke="rgba(228, 205, 177, 1)" stroke-width="2"></path>
        <path d="M324 720C324 687.19 323.31 635.86 360 630C431.31 618.62 451.59 653.76 540 685.53C576.8 698.76 610.43 710.92 610.43 720C610.43 728.16 575.21 720 540 720C450 720 450 720 360 720C342 720 324 732.19 324 720" stroke="rgba(228, 205, 177, 1)" stroke-width="2"></path>
    </g>
    <defs>
        <mask id="SvgjsMask1070">
            <rect width="1440" height="720" fill="#ffffff"></rect>
        </mask>
    </defs>
</svg>