<svg xmlns="http://www.w3.org/2000/svg" version="1.1" xmlns:xlink="http://www.w3.org/1999/xlink" xmlns:svgjs="http://svgjs.dev/svgjs" width="1440" height="720" preserveAspectRatio="none" viewBox="0 0 1440 720">
    <g mask="url(&quot;#SvgjsMask1006&quot;)" fill="none">
        <rect width="1440" height="720" x="0" y="0" fill="rgba(60, 60, 60, 1)"></rect>
        <path d="M0 53.62C5.19 23.94 4.94 7.91 31.5 0C94.94 -18.9 105.75 0 180 0C270 0 270 0 360 0C400 0 420.95 -27.07 440 0C484.28 62.93 455.54 93.05 486.67 180C505.54 232.71 497.58 246.58 540 279.31C614.24 336.58 630 319.65 720 360C720 360 720 360 720 360C810 384.4 816.27 408.81 900 408.81C931.54 408.81 950.53 387.28 950.53 360C950.53 323.96 931.1 316.07 900 282.16C848.56 226.07 841.9 231.96 785.45 180C751.9 149.12 753.04 147.9 720 116.47C658.44 57.9 596.25 33.7 596.25 0C596.25 -24.54 658.13 0 720 0C772.11 0 780.15 -19.05 824.21 0C870.15 19.87 865.28 77.84 900 77.84C930.34 77.84 915.61 16.75 954.34 0C1005.61 -22.17 1017.17 0 1080 0C1170 0 1170 0 1260 0C1350 0 1395 -45 1440 0C1485 45 1440 90 1440 180C1440 245.93 1469.21 311.86 1440 311.86C1396.52 311.86 1365.04 248.09 1294.62 180C1275.04 161.07 1277.44 137.81 1260 137.81C1242.37 137.81 1231.57 154.14 1224.47 180C1201.08 265.23 1186.72 279.42 1199.03 360C1204.48 395.67 1222.9 401.7 1260 412.5C1343.39 436.78 1384 390.51 1440 430.17C1474 454.26 1440 485.09 1440 540C1440 610.43 1452.63 615.22 1440 680.87C1435.32 705.22 1429.17 714.83 1405.38 720C1339.17 734.39 1332.69 720 1260 720C1170 720 1170 720 1080 720C990 720 990 720 900 720C829.29 720 822.63 735.07 758.57 720C732.63 713.9 746.29 684.87 720 677.65C637 654.87 611.33 644.16 540 660C515.96 665.34 553.08 712.06 529.25 720C463.08 742.06 444.63 720 360 720C270 720 270 720 180 720C90 720 45.91 764.09 0 720C-44.09 677.65 -15.72 620.47 0 547.11C3.57 530.47 30.02 555.99 38.57 540C80.02 462.44 112.03 433.68 100 360C92.74 315.55 24.05 347.05 0 303.75C-25.95 257.05 0 241.88 0 180C0 116.81 -10.56 113.94 0 53.62" stroke="rgba(157, 139, 119, 0.41)" stroke-width="2"></path>
        <path d="M0 149.36C37.28 72.89 29.02 48.73 87.75 0C119.02 -25.95 133.88 0 180 0C243.62 0 259.93 -26.81 307.24 0C349.93 24.19 332.96 51.35 360 102C381.01 141.35 392.4 137.48 403.33 180C425.56 266.48 404.55 272.52 426.32 360C449.35 452.52 483.76 447.76 492.92 540C501.64 627.76 504.72 662.27 462.09 720C438.26 752.27 411.04 720 360 720C270 720 270 720 180 720C90 720 55.16 754.84 0 720C-34.84 698 -34.83 627.22 0 606.32C55.17 573.22 104.39 634.73 180 612C214.71 601.57 203.26 577.45 220.65 540C261.76 451.45 309.36 428.96 297 360C289.03 315.56 236.11 341.54 180 313.2C87.61 266.54 78.63 268.19 0 210C-11.37 201.59 0 195 0 180C0 164.68 -6.59 162.89 0 149.36" stroke="rgba(157, 139, 119, 0.41)" stroke-width="2"></path>
        <path d="M918 180C920.48 88.89 971.05 75.77 1039.25 0C1052.05 -14.23 1059.63 0 1080 0C1170 0 1170 0 1260 0C1350 0 1395 -45 1440 0C1485 45 1440 90 1440 180C1440 219.76 1457.62 259.53 1440 259.53C1413.77 259.53 1392.68 223.07 1352.31 180C1302.68 127.06 1306.51 67.5 1260 67.5C1212.99 67.5 1194.91 115.06 1165.26 180C1128.14 261.31 1102.25 284.63 1126.45 360C1149.62 432.13 1183.03 439.05 1260 475C1339.8 512.27 1363.96 478.98 1440 506.44C1453.96 511.48 1440 523.22 1440 540C1440 561.52 1451.54 565.89 1440 583.04C1390.97 655.89 1386.94 668.19 1318.85 720C1296.94 736.67 1289.43 720 1260 720C1215 720 1207.28 738.64 1170 720C1117.28 693.64 1124.36 630 1080 630C1036.86 630 1045.92 694.54 995 720C955.92 739.54 947.5 720 900 720C869.46 720 862.05 736.78 838.93 720C772.05 671.48 785.07 647.91 720 589.41C684.96 557.91 638.71 567.26 638.71 540C638.71 510.24 672.25 485.42 720 475.38C802.89 457.96 822.58 513.94 900 485.08C977.32 456.25 1025.33 430.1 1029.47 360C1034.33 277.56 915.59 268.89 918 180" stroke="rgba(157, 139, 119, 0.41)" stroke-width="2"></path>
        <path d="M105.52 180C93.26 103.97 112.85 75.28 144 0C150.09 -14.72 162 0 180 0C204.83 0 220.12 -19.09 229.66 0C265.12 70.91 286.11 107.59 270 180C261.28 219.19 224.16 223.2 180 223.2C141.92 223.2 111.26 215.57 105.52 180" stroke="rgba(157, 139, 119, 0.41)" stroke-width="2"></path>
        <path d="M1030.5 180C1030.5 137.8 1060.11 97.5 1080 97.5C1097.89 97.5 1106.05 138.43 1106.05 180C1106.05 229.18 1098.15 279 1080 279C1060.38 279 1030.5 228.55 1030.5 180" stroke="rgba(157, 139, 119, 0.41)" stroke-width="2"></path>
        <path d="M1410 180C1410 123.02 1432.39 56.84 1440 56.84C1447.39 56.84 1440 118.42 1440 180C1440 193.61 1446.03 207.21 1440 207.21C1431.03 207.21 1410 198.21 1410 180" stroke="rgba(157, 139, 119, 0.41)" stroke-width="2"></path>
        <path d="M293.23 540C319.72 485.92 327.16 439.02 360 439.02C392.39 439.02 416.78 484.4 423.69 540C434.24 624.89 421.65 644.47 394.93 720C389.81 734.47 377.47 720 360 720C291.17 720 236.23 757.42 222.35 720C202.84 667.42 250.9 626.41 293.23 540" stroke="rgba(157, 139, 119, 0.41)" stroke-width="2"></path>
        <path d="M1240 540C1240 535.32 1250.05 537.5 1260 537.5C1266.05 537.5 1272 536.12 1272 540C1272 547.37 1267.23 560 1260 560C1251.23 560 1240 546.57 1240 540" stroke="rgba(157, 139, 119, 0.41)" stroke-width="2"></path>
        <path d="M0 665.53C57.44 665.53 153.33 705.98 153.33 720C153.33 733.21 56.57 740.1 0 720C-20.1 712.86 -19.23 665.53 0 665.53" stroke="rgba(157, 139, 119, 0.41)" stroke-width="2"></path>
    </g>
    <defs>
        <mask id="SvgjsMask1006">
            <rect width="1440" height="720" fill="#ffffff"></rect>
        </mask>
    </defs>
</svg>