<svg width="790" height="128" viewBox="0 0 790 128" fill="none" xmlns="http://www.w3.org/2000/svg">
<g filter="url(#filter0_b_77_140)">
<path d="M27.4028 74.0985H65.6965L81.3043 89.7063V128L27.4028 74.0985ZM27.4028 8.94486V32.5381L0.361328 59.7611V8.94486H27.4028ZM54.0813 8.94486H92.375L27.4028 74.0985V100.959L0.361328 128V62.8463L54.0813 8.94486ZM175.14 8.94486V47.2385L94.5599 128V89.7063L175.14 8.94486ZM204.541 36.1678V70.6503L174.414 100.777H136.12L177.499 59.3981V8.94486L204.541 36.1678ZM177.499 128V100.777L204.541 73.7355V128H177.499ZM282.807 62.8463V35.9863H246.691V8.94486H306.037V39.6161L282.807 62.8463ZM282.807 62.8463L309.485 89.5249V128L244.513 62.8463H282.807ZM217.472 35.9863L244.513 8.94486V62.8463V100.777L217.472 128V35.9863ZM320.444 100.777V12.0301L347.667 39.0716V128L320.444 100.777ZM419.173 35.9863L446.214 8.94486V128L419.173 100.777V35.9863ZM385.961 35.9863H419.173L383.42 71.7392L363.819 52.3201L320.444 8.94486H358.738L385.961 35.9863ZM535.632 8.94486V47.2385L455.052 128V89.7063L535.632 8.94486ZM565.032 36.1678V70.6503L534.906 100.777H496.612L537.991 59.3981V8.94486L565.032 36.1678ZM537.991 128V100.777L565.032 73.7355V128H537.991ZM602.283 33.4455L585.223 18.0192V0.959444H602.283V33.4455Z" fill="white"/>
<path d="M657.605 8.94486V35.9863H604.974L632.015 8.94486H657.605ZM686.824 61.7574L674.846 73.7355H636.552L659.783 50.5053V8.94486L686.824 35.9863V61.7574ZM609.511 128V100.777L636.552 73.7355V100.959H694.991L667.949 128H609.511ZM789.431 35.9863V82.9913L762.208 55.9499V8.94486L789.431 35.9863ZM762.208 59.0351L789.431 86.0766V128L762.208 100.777V86.0766H732.081L705.039 59.0351V8.94486L732.081 35.9863V59.0351H762.208Z" fill="#8EFF09"/>
</g>
<defs>
<filter id="filter0_b_77_140" x="-16.8875" y="-16.2898" width="823.567" height="161.539" filterUnits="userSpaceOnUse" color-interpolation-filters="sRGB">
<feFlood flood-opacity="0" result="BackgroundImageFix"/>
<feGaussianBlur in="BackgroundImageFix" stdDeviation="8.62439"/>
<feComposite in2="SourceAlpha" operator="in" result="effect1_backgroundBlur_77_140"/>
<feBlend mode="normal" in="SourceGraphic" in2="effect1_backgroundBlur_77_140" result="shape"/>
</filter>
</defs>
</svg>
