<svg width="101" height="101" viewBox="0 0 101 101" fill="none" xmlns="http://www.w3.org/2000/svg">
<path d="M64.269 82.2412C67.2706 85.2928 70.2221 88.2443 73.2736 91.3959C70.4222 92.5965 67.4707 93.8471 64.269 95.1978C64.269 90.6455 64.269 86.4433 64.269 82.2412Z" fill="white"/>
<path d="M73.6797 25.1615C70.2779 28.2631 67.1263 31.1646 64.2249 33.8159C64.2249 30.114 64.2249 25.8619 64.2249 21.3096C67.3765 22.6102 70.328 23.8108 73.6797 25.1615Z" fill="white"/>
<path d="M37.6085 82.8945C37.6085 86.3963 37.6085 90.5984 37.6085 95.1007C34.4569 93.8501 31.5555 92.6495 28.4039 91.3989C31.6555 88.3473 34.7571 85.4959 37.6085 82.8945Z" fill="white"/>
<path d="M61.6734 37.768C58.2216 40.8696 55.07 43.721 52.1185 46.3223C52.1185 42.7205 52.1185 38.4683 52.1185 33.916C55.1701 35.1667 58.1716 36.3673 61.6734 37.768Z" fill="white"/>
<path d="M79.1307 63.583C77.8801 66.7346 76.6795 69.6361 75.3288 73.0878C72.3273 69.6361 69.5258 66.4845 66.9745 63.583C70.4263 63.583 74.5784 63.583 79.1307 63.583Z" fill="white"/>
<path d="M18.1005 36.919C14.0985 36.919 9.89633 36.919 5.39404 36.919C6.6947 33.7174 7.89531 30.7659 9.19597 27.6143C12.3476 30.8659 15.2491 33.9175 18.1005 36.919Z" fill="white"/>
<path d="M37.2584 65.9834C37.2584 69.8354 37.2584 74.0375 37.2584 78.5398C34.1068 77.2391 31.1553 76.0385 28.0037 74.7379C31.2553 71.6863 34.3569 68.7348 37.2584 65.9834Z" fill="white"/>
<path d="M54.3216 51.3291C57.9234 51.3291 62.1256 51.3291 66.5778 51.3291C65.3272 54.4307 64.1766 57.4322 62.8759 60.6338C59.8244 57.3321 56.9729 54.2306 54.3216 51.3291Z" fill="white"/>
<path d="M18.2052 63.4785C15.4538 66.38 12.5023 69.4315 9.4507 72.6332C8.20006 69.5816 6.94943 66.6301 5.69879 63.4785C10.1511 63.4785 14.4032 63.4785 18.2052 63.4785Z" fill="white"/>
<path d="M95.6908 63.0811C94.3902 66.2827 93.2396 69.1842 91.9889 72.3358C88.9874 69.0341 86.0859 65.9325 83.4846 63.0811C86.9864 63.0811 91.1385 63.0811 95.6908 63.0811Z" fill="white"/>
<path d="M85.1356 86.3439C82.3341 87.5445 79.3826 88.7951 76.131 90.1458C76.131 85.5935 76.131 81.3413 76.131 77.2393C79.0325 80.1908 82.034 83.2423 85.1356 86.3439Z" fill="white"/>
<path d="M82.7332 36.5187C85.7347 33.5172 88.6862 30.5156 91.7878 27.4141C93.0884 30.4156 94.289 33.3171 95.6897 36.5187C91.1874 36.5187 86.9853 36.5187 82.7332 36.5187Z" fill="white"/>
<path d="M86.9862 15.9102C88.0868 18.5115 89.3374 21.413 90.6881 24.6146C86.1858 24.6146 81.9837 24.6146 77.9316 24.6146C80.7831 21.8632 83.8346 18.9617 86.9862 15.9102Z" fill="white"/>
<path d="M37.3084 17.8129C34.3069 14.9615 31.2553 12.06 28.0037 8.95841C31.2053 7.65775 34.1568 6.40711 37.3084 5.10645C37.3084 9.55871 37.3084 13.8109 37.3084 17.8129Z" fill="white"/>
<path d="M73.4273 8.7045C69.9755 11.8561 66.8239 14.7576 63.8224 17.4589C63.8224 13.607 63.8224 9.3048 63.8224 4.85254C66.8739 6.05315 69.8755 7.25376 73.4273 8.7045Z" fill="white"/>
<path d="M40.2612 37.8183C43.2627 36.5677 46.2142 35.3671 49.3658 34.0664C49.3658 38.5687 49.3658 42.7708 49.3658 46.8229C46.4643 43.9214 43.4128 40.9699 40.2612 37.8183Z" fill="white"/>
<path d="M66.0231 36.2697C69.1747 33.1681 72.1262 30.2666 75.2778 27.165C76.5284 30.1165 77.779 33.068 79.1297 36.2697C74.6775 36.2697 70.4753 36.2697 66.0231 36.2697Z" fill="white"/>
<path d="M51.9162 66.334C51.9162 61.6816 51.9162 57.4295 51.9162 53.2773C54.9177 56.2288 57.9193 59.2304 61.1209 62.432C58.1694 63.6826 55.2179 64.9333 51.9162 66.334Z" fill="white"/>
<path d="M49.467 83.5911C46.2654 82.2904 43.3639 81.0898 40.2123 79.7892C43.464 76.7376 46.5155 73.8862 49.467 71.1348C49.467 74.8867 49.467 79.0888 49.467 83.5911Z" fill="white"/>
<path d="M20.7521 39.3711C23.9037 42.6227 26.8052 45.6743 29.8067 48.7258C25.5545 48.7258 21.3524 48.7258 16.9001 48.7258C18.1508 45.6743 19.4014 42.6728 20.7521 39.3711Z" fill="white"/>
<path d="M96.9895 39.6201C97.9901 42.0213 99.2407 44.9728 100.641 48.2245C96.1391 48.2245 91.937 48.2245 87.9349 48.2245C90.7864 45.4731 93.888 42.5216 96.9895 39.6201Z" fill="white"/>
<path d="M20.8009 60.6329C19.6002 57.6814 18.3996 54.78 17.049 51.5283C21.5012 51.5283 25.7534 51.5283 29.6554 51.5283C26.904 54.3798 23.9024 57.4313 20.8009 60.6329Z" fill="white"/>
<path d="M71.6273 48.5242C74.4787 45.7228 77.5303 42.7213 80.5818 39.7197C81.7324 42.4211 82.933 45.3226 84.3337 48.5242C79.8314 48.5242 75.6293 48.5242 71.6273 48.5242Z" fill="white"/>
<path d="M49.3659 29.5176C46.2643 26.466 43.2628 23.4645 40.1612 20.3129C43.2127 19.0623 46.1642 17.8116 49.3659 16.4609C49.3659 20.9132 49.3659 25.1153 49.3659 29.5176Z" fill="white"/>
<path d="M25.6535 77.54C25.6535 81.442 25.6535 85.6942 25.6535 90.1965C22.5019 88.8958 19.5504 87.6452 16.3488 86.3445C19.6504 83.2429 22.752 80.2914 25.6535 77.54Z" fill="white"/>
<path d="M61.5244 96.2987C58.773 97.4492 55.8715 98.6999 52.6699 100.051C52.6699 95.5483 52.6699 91.3461 52.6699 87.0439C55.6214 90.1455 58.5228 93.1971 61.5244 96.2987Z" fill="white"/>
<path d="M75.4796 22.0618C75.4796 18.2098 75.4796 14.0077 75.4796 9.60547C78.5812 10.8561 81.5327 12.0567 84.9344 13.4074C81.5827 16.459 78.4811 19.2604 75.4796 22.0618Z" fill="white"/>
<path d="M47.5147 51.4766C44.5132 54.5781 41.6117 57.5797 38.4601 60.8313C37.1595 57.6297 35.9588 54.6782 34.6082 51.4766C39.1104 51.4766 43.3126 51.4766 47.5147 51.4766Z" fill="white"/>
<path d="M64.5249 78.6883C64.5249 74.136 64.5249 69.9339 64.5249 65.8818C67.3764 68.7833 70.3279 71.7848 73.3794 74.8364C70.7281 75.987 67.7766 77.2376 64.5249 78.6883Z" fill="white"/>
<path d="M10.298 24.9627C11.5986 21.8111 12.7992 18.9096 14.0999 15.708C17.1515 19.0097 20.0029 22.1113 22.6543 24.9627C19.0524 24.9627 14.8003 24.9627 10.298 24.9627Z" fill="white"/>
<path d="M25.9538 72.9879C24.6531 69.8863 23.4525 66.9348 22.2018 63.7832C26.7041 63.7832 30.9063 63.7832 34.9083 63.7832C32.0569 66.6847 29.1054 69.7362 25.9538 72.9879Z" fill="white"/>
<path d="M13.549 51.626C10.5475 54.7276 7.59601 57.7291 4.54446 60.9307C3.2438 57.7791 1.99317 54.7776 0.692505 51.626C5.14477 51.626 9.29688 51.626 13.549 51.626Z" fill="white"/>
<path d="M36.9582 34.4667C34.0067 31.5152 31.0552 28.5136 28.0037 25.4121C30.9552 24.1614 33.8066 22.9608 36.9582 21.6602C36.9582 26.0624 36.9582 30.2645 36.9582 34.4667Z" fill="white"/>
<path d="M51.9162 28.4655C51.9162 25.0138 51.9162 20.8116 51.9162 16.3594C55.0178 17.61 57.9693 18.7606 61.271 20.0613C57.9193 23.0628 54.7676 25.9142 51.9162 28.4655Z" fill="white"/>
<path d="M79.0809 74.79C82.1825 74.79 86.3846 74.79 90.8369 74.79C89.5863 77.8916 88.4357 80.7931 87.135 84.0948C84.2336 80.693 81.4321 77.4914 79.0809 74.79Z" fill="white"/>
<path d="M25.7024 9.95508C25.7024 14.5074 25.7024 18.7095 25.7024 22.8116C22.7509 19.9602 19.6993 17.0087 16.3976 13.807C19.5492 12.5064 22.5007 11.2557 25.7024 9.95508Z" fill="white"/>
<path d="M63.025 39.8682C64.2756 42.7696 65.4762 45.6711 66.8269 48.8227C62.3746 48.8227 58.0724 48.8227 53.8703 48.8227C56.8218 45.9713 59.8734 43.0198 63.025 39.8682Z" fill="white"/>
<path d="M4.49332 39.1689C7.69494 42.5206 10.5964 45.5222 13.5479 48.5737C9.44583 48.5737 5.2437 48.5737 0.641357 48.5737C1.94202 45.3721 3.14263 42.4206 4.49332 39.1689Z" fill="white"/>
<path d="M49.2657 87.543C49.2657 91.2949 49.2657 95.447 49.2657 99.8993C46.1141 98.5986 43.1626 97.398 40.2612 96.1974C43.3627 93.2459 46.4143 90.2944 49.2657 87.543Z" fill="white"/>
<path d="M80.3304 60.7339C77.3289 57.3321 74.5274 54.1806 71.9761 51.3291C75.5279 51.3291 79.7301 51.3291 84.1323 51.3291C82.8817 54.3306 81.6811 57.2821 80.3304 60.7339Z" fill="white"/>
<path d="M14.2522 84.2423C13.0016 81.1407 11.801 78.2393 10.5003 75.1377C14.9526 75.1377 19.1047 75.1377 23.1567 75.1377C20.3053 78.0892 17.3538 81.0407 14.2522 84.2423Z" fill="white"/>
<path d="M40.1124 3.85152C43.1639 2.60088 46.0654 1.40027 49.267 0.0996094C49.267 4.65192 49.267 8.85406 49.267 12.9061C46.3655 10.0046 43.314 7.00312 40.1124 3.85152Z" fill="white"/>
<path d="M49.6659 53.3291C49.6659 57.2811 49.6659 61.5333 49.6659 66.0856C46.4643 64.7849 43.5128 63.5843 40.3612 62.2837C43.6629 59.132 46.7144 56.1806 49.6659 53.3291Z" fill="white"/>
<path d="M52.2186 70.8857C55.12 73.8372 58.0715 76.8888 61.1731 80.0404C58.3717 81.191 55.4702 82.4416 52.2186 83.7923C52.2186 79.24 52.2186 74.9878 52.2186 70.8857Z" fill="white"/>
<path d="M21.9506 36.4693C23.3012 33.2177 24.5019 30.2662 25.7525 27.2646C28.804 30.4163 31.7555 33.4678 34.657 36.4693C30.705 36.4693 26.5029 36.4693 21.9506 36.4693Z" fill="white"/>
<path d="M46.7656 48.8769C43.0137 48.8769 38.8115 48.8769 34.3593 48.8769C35.6599 45.7253 36.8605 42.8238 38.0611 39.8223C41.0627 42.9739 44.0142 46.0254 46.7656 48.8769Z" fill="white"/>
<path d="M88.3373 51.1797C91.8391 51.1797 96.0412 51.1797 100.493 51.1797C99.2428 54.2813 98.0422 57.1827 96.7916 60.3343C93.7901 57.0827 90.9386 53.9811 88.3373 51.1797Z" fill="white"/>
<path d="M51.9697 0C55.0212 1.25064 57.9227 2.40122 61.1743 3.70188C57.8727 6.70341 54.7711 9.50483 51.9697 12.0061C51.9697 8.60437 51.9697 4.40224 51.9697 0Z" fill="white"/>
</svg>
