<svg width="81" height="72" viewBox="0 0 81 72" fill="none" xmlns="http://www.w3.org/2000/svg">
<path d="M19.7435 1.93513C16.8102 3.66846 8.01016 16.3351 8.01016 19.1351C8.01016 19.6685 9.3435 19.2685 10.9435 18.4685C19.3435 13.9351 36.2768 11.9351 41.4768 14.6018C47.4768 17.9351 42.1435 22.6018 30.0102 24.6018C22.0102 25.9351 20.0102 26.6018 20.0102 28.0685C20.0102 28.7351 25.2102 32.7351 31.7435 36.8685C43.8768 44.6018 53.3435 52.7351 53.3435 55.2685C53.3435 58.0685 47.0768 62.7351 40.6768 64.7351C37.2102 65.6685 30.5435 66.6018 25.8768 66.7351C21.2102 66.8685 17.3435 67.4018 17.3435 68.0685C17.3435 70.6018 23.2102 71.9351 35.0768 71.9351C45.7435 71.9351 48.1435 71.5351 51.0768 69.1351C56.0102 65.4018 69.3435 41.4018 69.3435 36.4685C69.3435 32.7351 67.4768 29.0018 57.4768 11.4018C54.9435 7.0018 53.6102 3.93513 54.4102 4.46846C55.2102 5.0018 59.2102 11.2685 63.3435 18.4685C73.0768 35.6685 73.0768 37.6685 62.8102 55.2685C58.4102 62.6018 55.0768 68.7351 55.3435 69.0018C58.0102 71.8018 74.9435 43.8018 74.9435 36.4685C74.9435 33.4018 72.4102 27.5351 67.4768 18.6018C59.2102 4.2018 59.3435 4.33513 54.4102 3.4018C52.4102 3.13513 49.7435 2.2018 48.2768 1.4018C44.1435 -0.731536 24.0102 -0.331536 19.7435 1.93513Z" fill="white"/>
<path d="M67.4768 15.5351C75.6102 30.0685 77.3435 33.6685 77.3435 36.6018C77.3435 38.0685 74.0102 45.1351 69.8768 52.4685C63.0768 64.7351 61.8768 68.0685 65.2102 66.0685C66.0102 65.5351 69.7435 59.9351 73.4768 53.5351C82.5435 38.4685 82.6768 34.8685 74.8102 21.2685C68.4102 10.3351 65.6102 6.6018 63.7435 6.6018C62.9435 6.6018 64.6768 10.6018 67.4768 15.5351Z" fill="white"/>
<path d="M0.810168 29.9351C-1.0565 35.0018 0.276835 41.0018 5.07683 49.2685L10.0102 57.9351L19.4768 58.3351C27.3435 58.6018 29.4768 58.2018 32.1435 56.0685C36.5435 52.4685 35.0768 50.4685 20.6768 41.6685C14.0102 37.6685 7.07683 32.8685 5.21017 31.1351C2.1435 28.2018 1.61017 28.0685 0.810168 29.9351Z" fill="white"/>
</svg>
